 <svg version="1.0" xmlns="http://www.w3.org/2000/svg" width="700.000000pt" height="430.000000pt" viewBox="0 0 700.000000 430.000000" preserveAspectRatio="xMidYMid meet">
<metadata>
Created by potrace 1.12, written by Peter Selinger 2001-2015
</metadata>
<g transform="translate(0.000000,430.000000) scale(0.100000,-0.100000)" fill="#000000" stroke="none">
<path d="M1 3723 c1 -318 5 -559 8 -535 4 23 12 47 17 52 11 11 199 30 292 30
l62 0 0 -80 0 -80 -184 0 c-167 0 -185 2 -189 18 -3 9 -5 -2 -6 -24 l-1 -42
110 6 109 5 12 -29 c16 -37 23 -159 14 -229 l-6 -55 -120 0 -119 0 0 -172 c0
-109 4 -168 9 -158 6 8 7 18 5 22 -9 14 7 48 23 48 8 0 13 -6 10 -12 -2 -7 6
-23 19 -34 35 -33 55 -81 52 -122 -2 -31 -7 -38 -28 -40 -14 -2 -29 -8 -35
-13 -15 -15 -31 -10 -43 14 -8 17 -11 -23 -11 -165 l-1 -188 26 0 c38 0 110
-93 182 -236 22 -43 56 -105 75 -137 20 -32 38 -75 42 -96 7 -44 -13 -133 -28
-128 -26 8 -83 109 -122 216 -23 64 -53 139 -67 166 -28 55 -63 92 -72 77 -3
-5 1 -15 9 -22 15 -12 95 -169 95 -186 0 -5 11 -45 25 -89 14 -43 24 -83 22
-88 -1 -5 -23 17 -47 49 -25 32 -60 74 -78 92 -18 19 -39 44 -47 56 -14 20
-15 19 -15 -15 0 -27 7 -40 30 -57 16 -12 49 -50 72 -83 24 -34 50 -71 58 -82
14 -19 13 -19 -5 -9 -28 16 -58 45 -71 67 -5 10 -18 19 -28 21 -10 1 -23 7
-29 13 -18 18 -27 12 -27 -18 0 -25 12 -37 90 -90 50 -34 113 -72 141 -83 42
-18 48 -23 33 -29 -29 -12 -223 -10 -245 1 -17 9 -19 7 -19 -18 0 -27 4 -30
44 -35 23 -4 58 -4 77 -2 19 2 64 6 102 9 l67 5 0 -75 c0 -66 -2 -75 -16 -70
-9 3 -27 9 -40 12 -13 3 -24 14 -24 23 0 13 -2 13 -9 2 -5 -8 -16 -11 -30 -6
-11 3 -21 4 -21 1 0 -2 26 -12 57 -21 76 -22 106 -39 162 -88 32 -29 37 -31
15 -8 l-32 33 91 187 c49 102 91 187 92 189 2 3 254 -154 267 -166 12 -12
-146 -392 -163 -392 -10 0 -136 81 -160 103 -14 12 -16 10 -17 -17 -1 -40 28
-156 39 -156 12 0 11 11 -6 60 l-15 42 27 -17 c14 -10 41 -26 60 -37 31 -19
33 -24 33 -72 0 -29 3 -107 6 -173 l7 -120 -51 -7 c-65 -8 -133 20 -90 37 9 4
9 6 -1 6 -8 1 -26 -9 -40 -21 -21 -18 -22 -19 -10 -3 48 58 86 186 74 248 -30
161 -104 265 -235 330 -59 29 -73 32 -157 32 -51 0 -93 3 -93 7 0 4 26 9 57
13 85 10 87 13 6 14 l-73 1 0 -56 c0 -55 0 -55 22 -40 30 21 141 22 161 1 9
-8 17 -10 19 -5 2 6 21 2 46 -10 l42 -20 0 -75 c0 -41 3 -75 6 -75 3 0 15 5
27 11 21 10 21 9 3 -5 -10 -8 -23 -17 -28 -18 -6 -2 -10 -78 -10 -188 0 -102
-4 -193 -9 -202 -11 -21 -69 -25 -69 -5 0 8 -4 7 -10 -3 -9 -13 -11 -13 -20 0
-6 10 -10 11 -10 3 0 -27 -30 -13 -31 15 l0 27 -10 -25 c-13 -31 -13 -32 -33
-24 -16 6 -23 35 -9 33 20 -3 24 2 13 16 -7 8 -10 15 -7 15 3 0 1 16 -3 34 -4
19 -5 38 -2 41 3 3 7 13 8 21 1 9 5 23 9 32 6 15 9 14 26 -7 10 -13 20 -33 20
-45 1 -11 5 10 9 48 4 39 12 72 18 74 17 5 15 62 -2 68 -8 3 -13 17 -12 35 1
16 -1 29 -6 29 -4 0 -8 -12 -8 -27 l-1 -28 -18 22 c-14 17 -18 33 -14 65 3 30
2 39 -5 29 -8 -11 -11 -9 -17 8 -6 20 -69 71 -88 71 -4 0 -7 -34 -6 -75 1 -41
5 -75 9 -75 14 0 19 27 7 39 -8 8 -8 14 0 22 7 7 17 2 32 -19 23 -32 27 -52
11 -52 -5 0 -7 -7 -4 -15 4 -8 11 -12 17 -8 6 4 7 1 2 -6 -5 -9 -11 -9 -17 -3
-6 6 -18 8 -27 5 -13 -4 -13 -3 -2 5 17 12 6 33 -14 25 -18 -6 -20 -59 -2 -66
9 -4 9 -6 0 -6 -10 -1 -13 -82 -13 -356 l0 -355 3500 0 3500 0 0 2150 0 2150
-650 0 -650 0 0 -34 0 -33 -77 -7 c-42 -3 -90 -6 -106 -6 l-31 0 21 20 c26 24
20 60 -10 60 -19 0 -20 -4 -14 -109 l6 -109 -82 -6 c-45 -3 -118 -8 -163 -10
l-81 -5 -7 67 c-3 37 -6 91 -6 120 l0 52 -45 0 -46 0 6 -177 c3 -98 8 -253 10
-344 3 -91 3 -173 -1 -182 -4 -12 -18 -17 -51 -17 -36 0 -44 3 -39 15 3 8 1
15 -5 15 -6 0 -8 7 -5 16 3 8 2 13 -3 9 -15 -9 -40 5 -40 23 -1 9 -1 34 -1 54
-1 28 -4 36 -15 32 -8 -3 -15 -18 -17 -34 -3 -28 -4 -28 -33 -14 -16 8 -22 12
-13 10 11 -3 15 0 12 9 -3 8 -13 11 -21 8 -11 -4 -14 -2 -9 6 4 6 13 11 19 10
7 -1 20 1 31 6 17 8 17 9 -5 25 -20 16 -23 27 -27 126 -2 60 -4 163 -4 229 1
65 -3 124 -8 130 -8 10 -10 16 -10 35 0 6 -10 10 -23 10 l-22 0 3 -140 4 -140
-66 0 -66 0 -2 78 c-2 42 -2 105 0 140 l3 63 -318 -5 c-175 -2 -342 -8 -370
-11 -36 -5 -53 -3 -53 4 0 7 -25 11 -66 11 l-67 0 6 -51 c6 -45 4 -52 -13 -56
-11 -3 -17 -9 -14 -14 3 -5 1 -9 -5 -9 -5 0 -12 4 -15 9 -9 14 -81 24 -166 23
-91 0 -203 -26 -410 -93 -163 -53 -223 -82 -279 -133 l-34 -31 7 155 c4 85 9
164 12 177 6 21 3 23 -39 23 l-45 0 -6 -72 c-3 -40 -9 -145 -14 -234 -5 -88
-15 -170 -21 -182 -15 -28 -46 -44 -95 -51 -88 -13 -34 -41 77 -41 l49 0 -36
-41 c-36 -43 -65 -112 -58 -141 5 -25 14 -22 37 12 25 38 35 38 35 1 0 -17 4
-32 9 -36 9 -5 21 30 51 142 14 54 31 63 119 63 77 0 111 8 90 21 -7 4 6 5 29
2 46 -6 50 -3 27 21 -14 14 -11 18 27 43 24 15 86 46 138 68 52 23 115 52 140
65 57 29 234 79 281 80 43 0 137 -31 187 -62 20 -13 46 -28 57 -33 14 -8 20
-21 20 -44 0 -52 -37 -74 -120 -74 -36 0 -65 -3 -65 -8 0 -5 -12 -8 -27 -7
-58 4 -80 -2 -91 -24 l-11 -23 0 23 c-1 24 -21 32 -21 8 0 -8 -5 -18 -10 -21
-6 -4 -10 -3 -9 2 4 24 -4 25 -21 3 -19 -24 -19 -24 -13 -2 6 26 -2 28 -25 6
-15 -15 -16 -15 -23 2 -7 18 -8 18 -14 -3 -6 -17 -22 -25 -83 -39 -43 -10 -85
-16 -94 -15 -12 1 -18 -5 -18 -19 0 -13 -5 -20 -13 -17 -6 2 -20 -5 -29 -15
-9 -11 -22 -17 -27 -13 -6 3 -11 -1 -11 -9 0 -9 -5 -16 -12 -16 -6 0 -26 -11
-44 -25 -18 -14 -36 -25 -41 -25 -9 0 -84 -55 -148 -107 -19 -16 -49 -49 -65
-74 -17 -24 -41 -59 -55 -78 -33 -45 -33 -88 0 -103 19 -9 28 -9 37 0 9 9 8
12 -5 12 -22 0 -21 19 1 47 l17 23 17 -30 c16 -28 16 -30 0 -31 -9 0 -12 -3
-6 -5 6 -3 22 0 35 5 13 5 19 10 12 10 -18 1 -35 39 -28 62 4 10 10 17 15 14
4 -2 18 10 30 28 12 17 43 49 69 70 l46 37 3 -27 c13 -124 57 -208 115 -217
62 -10 147 -13 147 -5 0 4 -20 11 -45 14 -52 8 -73 26 -50 45 13 10 15 9 16
-11 1 -21 3 -20 17 11 l16 35 7 -30 c3 -16 7 -25 8 -18 0 7 8 10 16 7 11 -5
13 -2 9 10 -3 9 -10 16 -15 16 -5 0 -9 4 -9 9 0 8 60 35 65 29 1 -2 5 -22 8
-46 4 -32 1 -44 -10 -51 -10 -5 -13 -13 -8 -21 6 -9 32 -11 99 -8 105 6 172
33 224 92 34 39 42 43 42 23 0 -25 -60 -78 -117 -104 -50 -23 -75 -27 -183
-31 -111 -4 -137 -1 -234 22 -59 15 -115 25 -125 23 -14 -4 -14 -5 2 -6 9 0
17 -5 17 -11 0 -5 7 -10 15 -10 9 0 12 -6 8 -17 -5 -15 -3 -14 10 2 l16 20 1
-20 c1 -11 4 -14 7 -7 2 6 12 12 20 12 9 0 13 -6 9 -15 -3 -8 -1 -15 4 -15 6
0 10 6 10 13 0 8 3 8 9 -2 10 -16 18 -18 96 -25 28 -3 64 -9 80 -14 17 -5 35
-7 42 -5 6 2 14 -1 18 -6 13 -21 -49 -33 -149 -28 -108 5 -108 -6 0 -23 74
-12 230 -5 240 11 3 6 14 7 25 4 15 -5 19 -1 19 14 0 23 15 28 23 9 4 -10 6
-10 6 0 1 6 6 12 12 12 6 0 9 -9 6 -20 -3 -11 -1 -20 4 -20 5 0 9 10 9 23 0
16 3 18 9 8 12 -19 24 4 16 30 -5 16 -3 20 6 17 8 -3 17 -18 20 -34 4 -16 7
-24 8 -17 0 6 10 15 22 18 17 6 20 13 17 44 -2 29 0 37 14 38 10 1 19 -7 21
-20 3 -12 3 -2 1 23 -3 42 -1 47 35 72 42 30 130 46 168 31 12 -4 35 -26 53
-48 30 -37 31 -43 29 -120 -1 -44 -8 -105 -15 -137 -14 -60 -63 -188 -71 -188
-3 0 -12 8 -19 18 -12 15 -14 13 -15 -18 -2 -47 -9 -278 -9 -313 0 -27 -1 -28
-47 -25 l-48 3 -1 60 c-1 33 -3 125 -4 205 l-3 145 -7 -100 c-4 -55 -5 -116
-3 -135 4 -32 -4 -47 -75 -143 -44 -59 -82 -113 -84 -120 -4 -9 -59 -13 -219
-15 l-214 -3 0 -130 0 -129 102 -96 c57 -53 103 -101 102 -107 0 -7 -41 -48
-91 -92 -50 -44 -122 -109 -160 -144 l-69 -64 7 -79 c6 -75 6 -78 -15 -78 -17
0 -21 -6 -21 -30 0 -18 6 -33 15 -36 8 -4 15 -10 15 -15 0 -4 -7 -6 -15 -3
-12 5 -15 -6 -15 -65 0 -68 1 -71 24 -71 21 0 23 4 24 53 0 28 1 71 1 95 l1
42 64 0 c35 0 78 -3 95 -6 l31 -6 0 -83 c0 -46 4 -85 10 -87 5 -1 35 -1 65 0
50 4 56 6 61 30 9 36 14 43 24 37 10 -6 -19 -96 -35 -107 -5 -4 -7 -8 -3 -8 3
0 0 -21 -8 -47 -8 -25 -14 -56 -14 -69 0 -12 -5 -35 -11 -51 -6 -15 -13 -40
-14 -54 -1 -15 -10 -42 -19 -60 -9 -17 -16 -42 -16 -54 0 -13 -6 -28 -14 -34
-7 -6 -21 -38 -30 -71 -9 -33 -19 -60 -21 -60 -2 0 -3 20 -2 44 1 26 5 39 10
33 5 -8 7 -5 6 8 -1 11 0 27 3 35 34 99 48 154 42 172 -4 12 -2 18 4 14 5 -3
16 14 24 39 13 37 13 45 2 45 -10 0 -14 14 -14 45 0 43 1 45 29 45 21 0 30 6
34 22 4 12 5 23 3 25 -1 2 -126 -1 -277 -6 -151 -6 -281 -10 -289 -11 -8 0
-24 1 -35 2 -14 2 -19 -2 -17 -15 2 -10 -2 -25 -9 -33 -9 -11 -8 -14 4 -14 8
0 20 -7 27 -15 11 -13 16 -12 42 10 16 14 47 28 69 31 21 4 39 10 39 15 0 5
21 9 46 9 l46 0 -4 -120 c-3 -66 -2 -120 1 -120 4 0 15 28 26 63 20 62 20 62
55 59 19 -2 40 -8 47 -14 7 -5 17 -7 24 -3 6 4 15 1 20 -6 6 -10 9 -11 9 -1 0
7 13 12 29 12 38 0 45 -28 32 -139 -7 -63 -14 -87 -30 -102 -12 -12 -18 -26
-14 -36 4 -11 3 -14 -5 -9 -8 5 -12 0 -12 -12 0 -18 -29 -41 -31 -24 0 4 -2
40 -3 81 -2 44 -9 76 -16 81 -9 6 -9 9 1 13 11 4 12 7 2 18 -10 9 -13 10 -13
1 0 -7 -6 -11 -12 -9 -9 1 -12 -12 -11 -43 1 -25 0 -60 -3 -77 -4 -28 -9 -33
-31 -33 l-27 0 33 -34 c21 -21 30 -39 26 -47 -5 -7 -4 -10 3 -6 7 5 8 -6 5
-33 -11 -79 34 -130 116 -130 38 0 40 -2 32 -23 -15 -40 -91 -50 -91 -12 0 9
-16 31 -35 49 l-35 33 -23 -51 c-31 -67 -73 -115 -116 -133 -19 -8 -82 -17
-140 -20 l-106 -6 51 55 c59 65 90 146 98 255 l6 68 -14 -80 c-17 -102 -57
-183 -118 -241 -72 -67 -137 -94 -228 -94 -96 0 -165 30 -234 103 -28 29 -40
39 -29 22 11 -16 30 -39 42 -49 12 -11 21 -22 21 -25 0 -3 -81 -7 -181 -9
-148 -3 -187 0 -214 12 -18 9 -42 17 -55 19 -12 2 -25 8 -28 13 -4 5 -32 25
-62 45 -87 57 -163 137 -236 249 -64 98 -144 247 -144 270 0 5 15 10 33 10 49
0 110 12 98 19 -6 4 -11 66 -13 151 l-3 145 45 -3 c36 -2 50 -9 73 -35 15 -17
42 -38 59 -47 23 -11 43 -36 72 -90 42 -78 126 -168 203 -217 23 -14 40 -30
37 -35 -3 -5 -1 -15 6 -23 9 -10 9 -19 0 -35 -6 -12 -10 -24 -7 -26 2 -3 45 3
96 11 50 9 95 14 99 11 5 -3 17 18 26 45 24 66 103 151 171 184 32 16 79 29
115 32 l61 6 -5 -39 c-6 -35 -5 -37 5 -14 7 14 11 28 11 33 -3 14 47 7 62 -9
15 -14 17 -14 22 3 3 10 9 25 14 35 6 11 4 18 -6 22 -22 8 -22 9 -17 -18 5
-25 5 -25 -38 -12 -101 30 -231 -11 -319 -98 -37 -37 -52 -45 -82 -46 -21 0
-38 4 -38 8 0 4 -32 6 -71 4 -86 -5 -147 11 -189 50 -31 28 -32 31 -26 85 7
61 21 87 43 79 7 -3 13 1 13 8 0 13 31 46 42 46 4 0 4 -10 1 -23 l-6 -22 27
24 c21 20 26 22 26 8 0 -21 7 -21 28 0 16 16 17 15 20 -6 l4 -23 15 21 c8 12
19 19 24 15 5 -3 16 -1 24 6 10 8 18 6 33 -10 l20 -22 11 21 c16 29 31 26 32
-6 l1 -28 7 30 c5 22 9 26 15 16 7 -11 10 -11 17 0 6 11 9 10 15 -4 8 -22 24
-22 24 -1 0 13 3 14 15 4 8 -6 18 -10 22 -7 20 12 53 -13 54 -40 l1 -28 14 33
c12 28 17 31 35 22 11 -6 24 -23 30 -37 8 -21 12 -23 24 -13 10 9 15 9 15 1 0
-6 5 -11 10 -11 6 0 10 9 10 19 0 27 15 34 34 15 15 -14 16 -14 16 5 0 28 24
27 38 -2 l11 -22 0 24 c1 17 5 22 17 17 9 -3 22 -6 30 -6 8 0 11 -6 8 -15 -4
-8 -4 -15 -1 -15 9 0 38 101 32 110 -4 6 -1 10 5 10 11 0 28 37 37 82 5 25 3
27 -41 33 -25 4 -49 11 -52 16 -3 5 -1 9 4 9 5 0 7 11 5 25 -3 15 1 31 12 42
17 16 16 17 -1 24 -11 4 -26 8 -34 8 -13 0 -12 -2 1 -12 15 -11 15 -15 3 -32
-13 -18 -18 -16 -102 42 -94 65 -201 123 -228 123 -9 0 -33 -10 -52 -22 -34
-21 -35 -21 -28 -2 6 15 20 106 25 175 1 11 41 18 41 7 0 -5 13 1 28 14 81 66
110 85 156 102 70 26 160 117 176 177 7 24 9 63 6 88 -7 53 -51 153 -77 177
-27 25 -23 8 16 -66 39 -71 53 -149 36 -192 -12 -32 -35 -36 -50 -10 -9 14
-12 14 -19 4 -7 -11 -13 -9 -28 10 -29 36 -69 58 -119 65 -40 5 -51 1 -117
-38 -59 -36 -82 -44 -123 -45 -64 -1 -124 16 -167 50 -38 29 -121 46 -132 27
-5 -7 -26 -9 -61 -5 -51 6 -54 5 -69 -22 l-15 -29 -1 27 c0 34 26 101 56 147
29 43 20 56 -11 17 -56 -70 -71 -202 -32 -273 43 -79 82 -123 132 -148 28 -14
68 -39 90 -55 30 -23 47 -29 70 -25 26 4 37 -1 67 -32 20 -21 40 -51 44 -66 5
-21 11 -27 28 -25 11 2 20 9 19 15 -1 6 4 14 12 17 19 7 20 -31 3 -69 -11 -24
-23 -29 -58 -27 -8 0 -18 -4 -21 -10 -4 -6 -16 -4 -34 8 -22 14 -113 28 -99
15 2 -2 -12 -15 -31 -28 -33 -22 -40 -23 -249 -23 l-216 0 0 110 0 110 63 1
c49 1 56 3 32 9 -16 4 -130 8 -252 9 l-223 1 0 90 0 90 -35 0 c-29 0 -37 5
-45 26 -6 14 -10 153 -10 320 l0 294 64 0 64 0 7 101 7 101 49 -4 49 -3 1 60
c0 33 3 90 8 128 4 37 4 67 0 67 -4 0 -20 -5 -36 -11 -50 -20 -167 -49 -200
-49 -20 0 -36 7 -42 18 -6 9 -11 11 -11 5 0 -21 -20 -15 -20 5 0 14 8 19 30
19 17 0 30 -5 30 -11 0 -6 5 -4 10 4 9 13 11 13 20 0 6 -9 10 -10 10 -3 0 10
41 25 67 24 5 0 16 7 25 16 9 8 22 12 29 7 8 -4 10 -3 5 4 -4 8 1 13 13 14 12
0 27 1 34 2 6 1 15 6 20 11 4 6 11 4 18 -5 9 -13 10 -12 5 3 -6 19 10 24 17 5
3 -8 6 -6 6 5 1 12 9 17 30 17 17 0 33 5 36 10 11 18 -37 11 -132 -19 -188
-60 -326 -65 -423 -16 -28 14 -60 35 -70 45 -25 25 -27 49 -2 28 52 -45 114
-69 185 -74 l72 -4 -42 14 c-62 20 -112 54 -129 88 -14 27 -14 32 0 53 23 35
87 95 102 95 7 0 19 3 27 6 11 4 16 -6 22 -43 4 -26 14 -64 22 -85 16 -40 89
-111 104 -102 17 10 9 34 -15 40 -39 9 -92 96 -80 129 6 15 81 41 91 31 11
-10 7 -69 -5 -73 -8 -3 -12 6 -12 26 0 20 -5 31 -14 31 -24 0 -46 -12 -46 -24
0 -30 39 -87 77 -115 45 -33 59 -38 47 -20 -4 8 1 9 15 4 28 -8 71 2 71 16 0
7 -9 9 -21 6 -24 -6 -38 18 -20 36 8 8 11 6 11 -8 1 -20 1 -20 16 0 8 11 20
21 27 21 7 1 18 2 25 3 6 0 12 8 12 16 0 8 7 15 15 15 8 0 15 9 15 20 0 14 5
18 18 13 14 -5 15 -3 5 8 -18 19 -16 32 3 25 13 -5 14 -3 6 6 -6 7 -17 33 -25
56 l-15 44 35 -36 c21 -21 36 -46 38 -63 1 -15 5 -36 10 -47 5 -12 2 -28 -9
-47 -9 -16 -17 -32 -16 -36 0 -5 -4 -9 -10 -9 -22 -3 -24 -4 -12 -16 9 -9 17
-7 36 11 32 30 49 97 44 171 -2 33 0 60 4 60 15 0 118 -102 149 -147 43 -62
39 -73 -23 -73 -80 0 -91 -16 -16 -24 35 -3 80 -9 101 -12 23 -4 37 -2 37 4 0
17 -69 133 -109 181 -22 28 -29 42 -18 38 9 -4 25 -10 35 -14 10 -4 3 9 -18
34 -19 22 -39 40 -45 39 -5 -1 -11 9 -13 22 -3 19 -6 21 -19 11 -12 -10 -16
-10 -22 0 -5 7 -10 12 -12 10 -2 -1 -26 9 -54 22 -27 12 -55 22 -62 21 -6 -2
-14 2 -18 7 -3 6 -12 8 -20 4 -9 -3 -15 1 -15 8 0 11 -2 11 -10 -1 -7 -12 -11
-10 -19 10 -7 19 -10 21 -10 7 -1 -26 -26 -15 -26 11 0 11 -4 24 -8 28 -4 4
-7 -5 -7 -19 0 -30 -17 -37 -22 -10 -3 15 -4 15 -20 0 -16 -16 -18 -16 -26 -1
-7 12 -11 13 -17 5 -5 -9 -10 -9 -21 0 -11 9 -14 9 -14 0 0 -15 -41 -4 -52 13
-5 7 -8 4 -8 -6 0 -10 -4 -18 -10 -18 -5 0 -14 8 -19 18 -10 16 -10 15 -11 -3
-1 -11 -4 -14 -7 -7 -7 17 -21 15 -26 -5 -3 -10 -5 -3 -6 16 l-1 34 -19 -22
c-11 -13 -24 -20 -30 -17 -5 4 -13 1 -17 -5 -5 -9 -11 -7 -20 6 -12 17 -14 17
-20 1 -5 -12 -17 -16 -48 -16 -22 1 -57 -2 -77 -5 -30 -6 -41 -3 -59 15 -18
18 -20 28 -15 63 9 54 41 87 120 126 90 45 110 43 400 -25 241 -57 364 -100
400 -140 17 -19 40 -34 51 -34 21 0 64 -38 64 -56 0 -5 12 -22 26 -37 21 -22
29 -26 40 -16 9 7 11 16 6 23 -5 6 -12 27 -15 47 -3 19 -17 59 -31 89 -14 30
-26 66 -26 81 0 33 -49 110 -86 134 -14 9 -70 32 -123 51 l-96 33 0 56 c0 62
5 59 -89 55 l-58 -2 3 127 4 128 -105 -7 c-145 -8 -350 -10 -357 -2 -4 3 -204
6 -445 6 l-438 0 1 -577z m1297 408 c2 -97 0 -121 -10 -115 -7 4 -41 28 -75
53 -35 25 -118 76 -185 113 l-122 67 135 4 c73 1 161 2 194 2 l60 -1 3 -123z
m-458 89 c0 -28 -3 -30 -35 -30 -30 0 -35 3 -35 23 0 31 7 37 42 37 24 0 28
-4 28 -30z m139 -46 c47 -26 115 -68 151 -93 36 -26 81 -57 100 -69 l35 -22
-55 7 c-30 3 -93 7 -140 7 -73 1 -93 -3 -141 -27 -31 -15 -60 -27 -64 -27 -4
0 -5 50 -1 112 7 113 13 158 24 158 3 0 44 -21 91 -46z m3111 -69 c0 -52 -4
-95 -9 -95 -13 0 -176 158 -170 164 7 7 104 23 147 25 l32 1 0 -95z m1570 23
l0 -73 -60 62 c-33 34 -60 64 -60 67 0 5 43 12 93 14 l27 2 0 -72z m304 -19
c4 -44 6 -82 4 -84 -2 -2 -58 -6 -126 -9 l-123 -7 3 83 3 83 75 6 c41 3 94 6
116 7 l41 2 7 -81z m-5164 -1 c0 -7 3 -23 6 -35 4 -13 2 -23 -3 -23 -8 0 -17
13 -41 63 -2 4 6 7 17 7 12 0 21 -6 21 -12z m-587 -5 c-7 -2 -19 -2 -25 0 -7
3 -2 5 12 5 14 0 19 -2 13 -5z m5368 -43 l44 -39 -43 -1 c-37 0 -44 4 -52 26
-12 31 -13 54 -1 54 5 0 28 -18 52 -40z m-2171 4 c-1 -4 4 -11 12 -15 10 -7 9
-9 -3 -9 -19 0 -32 26 -22 43 5 8 8 8 11 -1 2 -6 3 -14 2 -18z m-66 -6 c-3 -4
-14 -8 -25 -8 -11 0 -18 4 -14 9 3 6 14 9 25 8 10 -1 16 -5 14 -9z m-88 -35
c-7 -7 -26 7 -26 19 0 6 6 6 15 -2 9 -7 13 -15 11 -17z m34 17 c0 -5 -2 -10
-4 -10 -3 0 -8 5 -11 10 -3 6 -1 10 4 10 6 0 11 -4 11 -10z m-3038 -45 c-4
-40 -7 -45 -27 -45 -13 0 -30 8 -37 18 -7 10 -21 21 -30 25 -35 13 -20 36 25
40 23 2 49 4 57 5 12 2 14 -7 12 -43z m5239 -9 c0 -28 2 -58 4 -67 1 -9 6
-161 10 -338 6 -246 5 -321 -4 -321 -7 0 -9 -5 -5 -12 11 -17 11 -98 1 -105
-5 -3 -7 -28 -6 -56 3 -42 0 -51 -15 -53 -10 -1 -26 -10 -35 -18 -17 -15 -18
-2 -30 266 -7 156 -15 286 -18 291 -2 4 -60 7 -127 7 l-123 0 -7 53 c-3 28 -6
127 -6 220 l0 167 73 1 c39 1 104 4 142 8 39 4 87 7 108 7 l37 1 1 -51z
m-2276 34 c3 -5 1 -10 -4 -10 -6 0 -11 5 -11 10 0 6 2 10 4 10 3 0 8 -4 11
-10z m-2605 -47 c0 -25 -19 -42 -21 -19 -2 21 -2 54 0 64 3 15 21 -24 21 -45z
m2550 -16 c0 -21 -18 7 -25 38 l-7 30 16 -29 c9 -15 16 -33 16 -39z m3105 -71
c6 -65 8 -119 6 -122 -2 -2 -17 -4 -31 -4 -26 0 -28 3 -34 60 -20 196 -21 178
5 183 13 2 29 3 34 2 6 -1 15 -54 20 -119z m-3180 78 c-8 -6 -15 -18 -15 -27
0 -9 -5 -19 -11 -22 -6 -4 -8 -13 -5 -20 7 -20 -25 -12 -51 13 -19 19 -21 27
-13 43 6 11 14 18 18 15 4 -2 18 4 32 14 19 14 27 16 42 6 16 -10 17 -12 3
-22z m3049 -56 c3 -50 6 -110 6 -133 l0 -42 -154 -13 c-85 -6 -159 -9 -164 -6
-5 3 -10 43 -11 88 -1 46 -4 102 -7 126 -4 23 -5 43 -3 43 2 1 69 7 149 14 80
6 152 13 161 13 13 2 17 -14 23 -90z m-5384 67 c7 -9 8 -15 2 -15 -5 0 -12 7
-16 15 -3 8 -4 15 -2 15 2 0 9 -7 16 -15z m4930 -15 c0 -16 6 -20 30 -20 21 0
30 -5 30 -16 0 -8 5 -70 11 -135 10 -109 9 -122 -6 -139 -9 -10 -15 -23 -12
-27 3 -5 10 -103 16 -219 6 -115 13 -236 17 -268 l5 -59 -103 7 c-60 4 -106
12 -110 19 -4 6 -7 59 -6 117 0 58 -2 132 -6 165 -4 33 -6 76 -5 95 1 19 1 51
0 70 -7 239 -11 322 -16 330 -3 5 -1 19 5 30 6 11 7 20 2 20 -5 0 -9 7 -9 15
0 18 36 28 120 33 31 2 37 0 37 -18z m-5580 -67 c0 -46 -34 -123 -54 -123 -13
0 -20 89 -10 121 6 20 41 31 49 15 3 -6 3 5 0 24 -4 25 -2 31 5 20 5 -8 10
-34 10 -57z m649 51 c2 -2 -10 -4 -27 -4 -18 0 -32 5 -32 10 0 9 47 4 59 -6z
m2369 -10 c-2 -17 -5 -20 -15 -12 -18 14 -16 35 2 35 9 0 14 -9 13 -23z
m-2927 -64 c4 -106 -14 -237 -35 -264 -6 -8 -21 -17 -33 -21 -22 -6 -23 -4
-23 67 1 46 8 93 20 128 11 30 20 82 20 115 l1 60 24 -30 c14 -16 25 -41 26
-55z m790 47 c-13 -12 -20 -15 -16 -7 14 26 28 41 33 35 3 -3 -5 -16 -17 -28z
m3109 -13 c0 -21 -4 -33 -10 -29 -5 3 -10 -1 -10 -10 0 -9 4 -14 9 -11 9 6 21
-40 21 -81 0 -21 -4 -24 -22 -19 -13 3 -26 6 -30 6 -13 0 -9 75 5 89 9 11 9
14 0 18 -7 2 -15 3 -19 1 -3 -2 -12 11 -18 27 -14 34 -5 43 47 44 24 1 27 -2
27 -35z m-1120 -2 c0 -10 5 -23 12 -30 9 -9 9 -12 0 -12 -12 0 -32 31 -32 49
0 6 5 11 10 11 6 0 10 -8 10 -18z m-40 -2 c0 -5 -5 -10 -11 -10 -5 0 -7 5 -4
10 3 6 8 10 11 10 2 0 4 -4 4 -10z m30 -44 c0 -2 -7 -7 -16 -10 -8 -3 -12 -2
-9 4 6 10 25 14 25 6z m-2315 -181 c0 -192 18 -171 -147 -180 l-108 -6 0 169
c0 93 3 172 7 175 3 4 61 7 127 7 l121 0 0 -165z m3455 47 c0 -7 -4 -11 -9 -7
-5 3 -13 -5 -17 -17 -7 -22 -7 -22 -15 -3 -13 34 -10 41 16 41 14 0 25 -6 25
-14z m10 -32 c0 -5 -7 -7 -15 -4 -8 4 -15 8 -15 10 0 2 7 4 15 4 8 0 15 -4 15
-10z m2000 -5 c0 -11 -13 -15 -50 -16 -27 -1 -55 -2 -62 -3 -25 -2 -17 23 9
27 67 10 103 7 103 -8z m178 -193 c1 -89 0 -162 -3 -162 -3 0 -65 -7 -136 -16
-72 -9 -135 -12 -140 -7 -5 5 -24 260 -24 334 0 2 267 16 285 15 13 -1 15 -28
18 -164z m-417 7 c-33 -74 -64 -135 -68 -136 -5 -2 -10 29 -11 69 -1 40 -5
101 -8 135 l-6 61 58 7 c33 3 66 7 74 8 8 2 16 0 18 -4 2 -4 -24 -67 -57 -140z
m-1569 100 c3 -21 0 -29 -11 -29 -11 0 -10 -3 5 -14 10 -8 16 -18 11 -22 -4
-4 -17 2 -30 13 -12 11 -43 33 -69 48 -27 15 -48 29 -48 30 0 2 31 4 69 4 69
0 69 -1 73 -30z m666 4 c2 -8 -5 -13 -18 -13 -12 0 -18 -4 -15 -10 9 -14 -19
-12 -33 2 -17 17 -15 26 6 31 28 8 55 3 60 -10z m-822 -58 c44 -24 86 -48 94
-53 10 -6 -20 -12 -88 -17 -57 -4 -105 -6 -106 -4 -2 2 -7 33 -11 68 -9 75
-11 75 111 6z m274 25 c0 -11 -7 -20 -15 -20 -8 0 -15 9 -15 20 0 11 7 20 15
20 8 0 15 -9 15 -20z m40 6 c0 -3 -4 -8 -10 -11 -5 -3 -10 -1 -10 4 0 6 5 11
10 11 6 0 10 -2 10 -4z m-4180 -38 c1 -18 9 -77 18 -130 l18 -96 -58 -6 c-32
-3 -85 -9 -118 -12 -75 -7 -76 -2 -17 104 24 42 52 98 62 125 17 45 19 47 56
47 37 0 39 -2 39 -32z m423 -18 c4 0 5 5 1 12 -4 7 -3 8 4 4 20 -12 13 -26
-13 -26 -17 0 -25 6 -25 17 0 13 3 14 12 5 7 -7 16 -12 21 -12z m4567 11 c0
-14 -88 -91 -105 -91 -13 0 -15 9 -13 42 3 39 6 44 33 49 46 10 85 10 85 0z
m-5231 -8 c0 -5 -4 -17 -9 -28 -8 -18 -9 -17 -9 8 -1 15 4 27 9 27 6 0 10 -3
9 -7z m731 -3 c0 -5 -5 -10 -11 -10 -5 0 -7 5 -4 10 3 6 8 10 11 10 2 0 4 -4
4 -10z m60 0 c0 -5 -4 -10 -10 -10 -5 0 -10 5 -10 10 0 6 5 10 10 10 6 0 10
-4 10 -10z m4263 -62 c3 -40 4 -86 2 -103 -2 -16 -4 -45 -4 -62 -1 -28 -5 -33
-26 -33 -25 0 -25 0 -25 98 0 53 -3 114 -6 135 -6 36 -6 37 24 37 l30 0 5 -72z
m271 -9 c4 -44 5 -83 2 -86 -6 -7 -47 -8 -133 -5 l-62 2 87 85 c48 46 90 85
93 85 4 0 10 -36 13 -81z m-590 55 c3 -9 6 -81 6 -160 l0 -144 -49 0 c-27 0
-57 -3 -66 -6 -14 -6 -16 6 -14 107 1 63 7 138 12 167 l9 52 48 0 c34 0 50 -4
54 -16z m90 -6 c3 -13 6 -84 6 -159 l0 -136 -25 5 c-24 4 -25 7 -25 91 0 47
-3 116 -6 154 -7 67 -6 67 19 67 17 0 26 -7 31 -22z m-1414 -8 c15 -15 16 -20
5 -20 -8 0 -19 9 -25 20 -6 11 -8 20 -5 20 3 0 14 -9 25 -20z m133 -6 c50 -25
106 -85 113 -119 4 -21 -1 -43 -13 -65 -16 -29 -32 -38 -99 -61 -43 -16 -82
-28 -86 -28 -3 -1 6 23 22 52 35 66 45 141 26 196 -15 45 -10 49 37 25z m-263
-4 c19 -12 10 -20 -34 -27 -28 -4 -36 -2 -36 10 0 14 15 23 45 26 6 0 17 -3
25 -9z m-3260 -45 c0 -19 -4 -35 -10 -35 -11 0 -14 53 -3 63 11 12 13 8 13
-28z m626 1 l1 -30 -17 22 c-23 27 -34 28 -27 2 4 -16 0 -20 -19 -20 -20 0
-24 5 -24 29 0 28 2 29 43 29 40 -1 42 -3 43 -32z m2788 -1 c-7 -17 -20 -20
-28 -6 -7 10 3 21 20 21 8 0 11 -6 8 -15z m1505 -74 c1 -28 -1 -31 -13 -22
-11 9 -15 9 -19 -1 -4 -9 -6 -8 -6 3 -1 8 5 21 11 27 10 10 10 15 -2 23 -11 8
-12 12 -2 16 6 2 13 14 13 26 2 31 16 -28 18 -72z m-3589 59 c14 -22 2 -30
-45 -30 -45 0 -61 11 -52 35 7 18 85 14 97 -5z m3180 -8 c9 -4 16 -24 18 -46
3 -26 0 -36 -7 -32 -6 4 -11 3 -11 -2 0 -6 7 -12 15 -16 8 -3 15 -11 15 -18 0
-9 -3 -9 -10 2 -13 20 -17 12 -23 -43 -5 -43 -4 -47 9 -36 13 10 17 10 25 -2
12 -19 11 -49 -1 -49 -5 0 -11 10 -11 23 -2 22 -2 22 -6 -1 -4 -19 -9 -23 -26
-18 -12 3 -25 6 -29 6 -5 0 -8 54 -8 120 0 108 2 120 18 119 9 0 24 -3 32 -7z
m-1090 -12 c0 -5 -7 -10 -15 -10 -8 0 -15 5 -15 10 0 6 7 10 15 10 8 0 15 -4
15 -10z m-333 -42 c-3 -8 -6 -5 -6 6 -1 11 2 17 5 13 3 -3 4 -12 1 -19z m342
1 c-8 -15 -14 -18 -22 -10 -19 19 -31 12 -13 -8 12 -13 15 -27 11 -40 -6 -19
-8 -19 -21 -6 -21 21 -25 19 -18 -10 5 -19 2 -25 -10 -25 -24 0 -20 56 7 90
14 19 32 29 50 29 25 1 27 -1 16 -20z m-2272 5 c-3 -3 -12 -4 -19 -1 -8 3 -5
6 6 6 11 1 17 -2 13 -5z m-732 -24 c-2 -31 -15 -37 -15 -7 0 15 4 27 8 27 5 0
8 -9 7 -20z m85 11 c0 -5 -3 -17 -6 -25 -5 -13 -9 -14 -20 -5 -11 9 -14 9 -14
0 0 -7 -4 -9 -10 -6 -5 3 -10 15 -10 26 0 14 7 19 30 19 17 0 30 -4 30 -9z
m3568 -6 c12 16 32 16 32 0 0 -8 -3 -14 -7 -13 -5 1 -21 -5 -38 -15 -33 -18
-29 -22 7 -8 22 8 24 7 25 -27 1 -23 -2 -30 -7 -21 -7 10 -11 8 -19 -11 l-10
-25 0 23 c-1 13 -5 21 -9 18 -8 -5 -10 1 -14 42 0 9 -6 21 -12 25 -7 6 -4 7 7
3 12 -4 17 0 17 12 0 15 2 15 10 2 6 -9 13 -11 18 -5z m-909 -26 c-16 -10 -23
-4 -14 10 3 6 11 8 17 5 6 -4 5 -9 -3 -15z m-38 -10 c11 -5 17 -14 14 -19 -6
-10 14 -8 32 3 7 5 9 0 6 -14 -3 -11 -12 -23 -20 -26 -16 -6 -63 34 -63 54 0
16 5 16 31 2z m1789 -19 c0 -32 -1 -33 -24 -24 -19 7 -21 40 -3 47 23 10 27 7
27 -23z m384 -7 c10 -63 7 -335 -4 -328 -5 3 -15 -3 -22 -15 -11 -16 -23 -20
-72 -20 -47 0 -57 3 -48 12 15 15 15 43 2 69 -10 17 -13 18 -34 4 -17 -11 -23
-12 -24 -3 0 7 -4 30 -8 51 -5 31 -4 37 10 37 13 0 15 6 10 28 -4 15 -11 29
-16 30 -4 2 -8 18 -7 35 0 18 3 26 6 20 2 -7 9 -13 13 -13 11 0 0 74 -12 78
-4 2 -8 15 -8 28 0 24 1 24 104 24 l103 0 7 -37z m-4694 -1 c-29 -13 -57 -37
-69 -60 -12 -23 -31 -21 -31 4 0 30 47 61 95 62 15 0 16 -1 5 -6z m5505 -7
c-125 -16 -165 -18 -165 -6 0 15 28 19 150 19 l115 -1 -100 -12z m-4919 -40
c-4 -14 -11 -25 -16 -25 -10 0 -4 43 8 65 9 15 14 -14 8 -40z m-26 11 c0 -3
-4 -8 -10 -11 -5 -3 -10 -1 -10 4 0 6 5 11 10 11 6 0 10 -2 10 -4z m5064 -4
c2 -4 7 -123 11 -264 l6 -255 -73 5 c-40 2 -74 5 -74 6 -6 5 -22 492 -16 498
4 4 32 9 62 11 30 2 60 4 67 5 6 1 14 -2 17 -6z m-5008 -39 c-5 -12 -10 -13
-18 -5 -8 8 -8 15 3 28 15 18 25 4 15 -23z m4713 22 c2 -2 6 -33 8 -69 l6 -66
-105 0 c-120 0 -118 -2 -118 92 l0 47 78 4 c72 3 122 0 131 -8z m99 -185 c7
-96 12 -200 11 -230 -2 -100 -16 -8 -28 176 -13 206 -14 251 -3 239 5 -6 14
-89 20 -185z m-1306 -7 l4 -123 -37 0 -36 0 -6 68 c-4 37 -7 93 -7 124 0 57 0
57 33 60 17 2 35 1 38 -2 4 -3 9 -60 11 -127z m203 125 c5 -5 -91 -195 -106
-213 -5 -5 -9 42 -9 109 l0 118 55 -5 c31 -2 58 -7 60 -9z m-1288 -30 c-3 -7
-5 -2 -5 12 0 14 2 19 5 13 2 -7 2 -19 0 -25z m-2957 -16 c0 -4 14 -16 30 -25
26 -16 30 -24 30 -63 l0 -44 -65 0 c-61 0 -66 2 -75 26 -15 38 -12 58 11 88
19 24 69 37 69 18z m3876 -55 c-3 -51 -4 -52 -35 -55 -30 -3 -31 -2 -25 25 24
103 64 123 60 30z m-439 -9 c-3 -8 -6 -5 -6 6 -1 11 2 17 5 13 3 -3 4 -12 1
-19z m829 -105 c-7 -8 -66 -15 -66 -7 0 3 9 23 20 43 11 20 25 50 32 66 12 29
13 28 16 -34 2 -35 1 -65 -2 -68z m998 85 c3 -18 8 -67 11 -109 l6 -76 -38 -5
c-21 -3 -58 -4 -83 -3 -25 2 -82 3 -127 4 l-82 1 -3 100 c-2 62 1 101 7 101
19 3 220 16 262 17 40 2 42 1 47 -30z m-354 -187 l0 -200 -27 -3 c-30 -3 -38
-28 -28 -93 6 -40 6 -40 45 -37 l39 4 3 -104 c2 -56 1 -122 -1 -145 -3 -41 -4
-43 -37 -43 -29 0 -35 4 -40 28 -13 62 -37 123 -54 144 l-19 23 -1 -41 c0 -22
7 -49 15 -60 8 -10 15 -35 15 -55 0 -22 12 -53 30 -83 34 -53 50 -119 50 -203
0 -46 -3 -54 -17 -51 -15 3 -19 18 -24 96 -3 50 -9 95 -14 100 -4 4 -5 -18 -3
-48 3 -30 2 -80 -3 -110 -5 -30 -16 -102 -23 -160 -10 -68 -26 -132 -46 -180
l-31 -75 5 90 c3 50 7 115 9 145 3 30 2 43 0 28 -2 -16 -8 -28 -13 -28 -4 0
-6 -10 -3 -22 4 -17 2 -20 -5 -9 -7 10 -12 -2 -17 -45 -4 -32 -10 -63 -13 -68
-2 -4 -20 32 -40 80 -28 72 -35 103 -36 163 0 75 -12 65 -16 -14 -1 -22 -4
-33 -7 -25 -3 8 -17 27 -31 42 -20 22 -23 33 -18 59 8 43 23 59 55 59 17 0 38
11 56 30 16 17 52 38 82 47 29 9 53 23 53 30 0 7 5 13 10 13 6 0 10 11 10 25
0 31 -17 33 -22 3 -2 -15 -11 -24 -26 -26 -21 -3 -23 -1 -16 20 14 46 24 94
23 123 0 26 -2 27 -9 10 -5 -11 -9 -32 -9 -47 -1 -14 -5 -28 -9 -30 -4 -1 -18
-20 -31 -40 -12 -21 -27 -38 -32 -38 -5 0 -9 44 -10 98 -1 64 -4 88 -9 72 -5
-14 -9 -18 -10 -10 -1 8 -8 -16 -15 -55 -9 -50 -13 -60 -14 -35 0 19 -10 67
-21 105 -25 84 -19 132 18 168 34 32 72 47 123 47 24 0 39 5 39 13 0 6 -5 120
-11 251 -5 131 -8 244 -6 250 3 6 34 12 71 14 l66 3 0 -200z m-150 179 c0 -5
-5 -10 -11 -10 -5 0 -7 5 -4 10 3 6 8 10 11 10 2 0 4 -4 4 -10z m-4170 -90 l0
-90 -82 -1 c-46 0 -148 -2 -228 -4 -80 -3 -158 -2 -174 2 l-29 6 6 80 c4 44 9
82 12 85 3 3 13 -2 23 -11 27 -25 157 -49 222 -42 56 6 137 27 200 51 19 7 38
13 43 13 4 1 7 -39 7 -89z m4162 -72 c-5 -5 -9 7 -10 28 -1 20 -6 42 -13 50
-12 15 -3 38 12 29 5 -4 10 2 11 12 1 10 3 -11 5 -46 2 -35 0 -68 -5 -73z
m-319 75 c7 -9 5 -13 -7 -13 -11 0 -16 8 -15 28 0 15 3 21 6 12 3 -8 10 -21
16 -27z m-4375 -35 l3 -48 -60 0 -61 0 0 44 c0 51 7 56 70 53 l45 -2 3 -47z
m-445 -13 c16 -27 32 -69 35 -92 l5 -43 -62 0 -61 0 0 88 c0 49 3 92 7 96 18
17 49 -2 76 -49z m30 40 c-3 -9 2 -24 12 -35 12 -13 18 -41 21 -87 3 -63 3
-65 -6 -24 -5 25 -23 71 -39 103 l-30 58 24 0 c18 0 23 -4 18 -15z m4146 -98
l-2 -53 -39 -3 c-41 -2 -51 15 -22 40 8 7 22 25 30 41 23 44 35 34 33 -25z
m70 50 c-2 -1 -12 -9 -21 -16 -15 -12 -18 -11 -18 3 0 10 8 16 22 16 12 0 19
-1 17 -3z m168 -34 c0 -49 3 -58 13 -43 8 12 10 11 10 -6 0 -23 -17 -34 -51
-34 -16 0 -19 7 -19 44 0 42 7 53 36 55 6 1 11 -7 11 -16z m508 -3 c-3 -5 4
-6 15 -3 14 4 20 0 20 -12 0 -19 -25 -47 -34 -38 -3 4 -6 -3 -6 -14 0 -24 -30
-55 -30 -32 -1 9 -5 8 -15 -5 -13 -17 -15 -17 -15 -4 0 9 5 20 10 23 6 3 10
26 10 50 0 43 11 57 37 47 7 -2 11 -8 8 -12z m-4481 -100 c-1 -41 -6 -76 -11
-77 -9 -3 -52 82 -68 135 -6 22 -5 23 37 20 l43 -3 -1 -75z m4359 38 c3 -24 6
-147 6 -273 0 -226 1 -232 25 -275 13 -25 27 -60 31 -77 l7 -33 -42 0 c-32 0
-41 -3 -37 -14 3 -8 0 -22 -7 -31 -12 -16 -15 -15 -38 16 -37 49 -58 93 -90
189 -27 82 -28 83 -24 35 6 -65 39 -152 82 -216 38 -56 41 -69 19 -69 -8 0
-20 -9 -27 -20 -18 -29 -50 -25 -83 10 -16 16 -27 32 -24 34 2 2 20 9 39 14
l35 10 -51 1 c-68 1 -74 16 -74 175 0 184 17 211 163 258 l67 22 0 59 0 59
-104 -7 c-57 -4 -129 -4 -160 0 l-56 7 0 84 0 84 169 0 169 0 5 -42z m-4123
-43 l0 -75 -103 0 -104 0 3 53 c1 28 3 62 3 75 1 21 4 22 101 22 l100 0 0 -75z
m3170 28 c0 -92 -2 -93 -91 -93 -44 0 -79 3 -78 8 1 12 143 131 157 131 8 1
12 -15 12 -46z m1680 17 l0 -30 -65 0 c-62 0 -65 1 -65 24 0 22 5 25 43 29 92
8 87 9 87 -23z m148 1 c5 -35 -9 -42 -71 -35 -51 6 -57 9 -57 30 0 19 6 23 38
27 70 8 87 4 90 -22z m-4798 -51 l0 -71 -77 3 -78 3 -3 68 -3 67 81 0 80 0 0
-70z m4498 42 c3 -17 -2 -22 -17 -22 -16 0 -21 6 -21 26 0 33 33 30 38 -4z
m-1108 -133 l0 -79 -37 0 c-21 0 -62 -3 -90 -6 l-53 -7 0 86 c0 47 4 87 10 89
5 2 46 2 90 0 l80 -4 0 -79z m1164 45 c11 -30 6 -34 -48 -34 -40 0 -55 4 -60
16 -11 30 -6 34 48 34 40 0 55 -4 60 -16z m-5043 -15 c7 -14 7 -25 1 -31 -11
-11 -438 -20 -525 -11 -52 5 -58 8 -55 27 3 20 10 21 123 26 66 4 193 7 282 8
156 2 163 1 174 -19z m5519 -24 l0 -35 -170 -2 c-93 -1 -182 -2 -197 -2 -23
-1 -29 4 -31 27 -2 17 2 27 10 28 7 1 83 5 168 9 85 3 170 7 188 8 30 2 32 0
32 -33z m-1540 -5 l38 0 7 -213 c7 -206 7 -214 -14 -247 -11 -19 -21 -46 -21
-60 0 -46 -11 -50 -111 -52 -52 -1 -99 1 -104 4 -6 4 -8 90 -5 225 l5 218 67
-2 c73 -2 77 2 78 77 0 46 13 92 18 68 3 -13 13 -18 42 -18z m33 23 c-7 -2
-21 -2 -30 0 -10 3 -4 5 12 5 17 0 24 -2 18 -5z m-557 -135 c0 -135 7 -128
-113 -128 l-73 0 0 119 c0 86 3 121 13 125 6 2 48 4 92 3 l80 -2 1 -117z m164
82 c0 -39 -1 -40 -35 -40 -29 0 -36 4 -41 25 -10 40 1 55 41 55 34 0 35 -1 35
-40z m-3271 -15 c1 -16 0 -121 -4 -233 l-7 -203 -72 133 c-40 74 -100 175
-134 225 -34 51 -62 97 -62 103 0 7 45 10 138 8 l137 -3 4 -30z m4701 -10 c0
-24 -3 -25 -54 -25 -56 0 -72 9 -62 35 4 11 22 15 61 15 52 0 55 -1 55 -25z
m-5374 -46 c9 -61 14 -62 14 -1 l0 52 60 0 c71 0 140 -29 170 -70 18 -26 47
-167 36 -178 -3 -2 -18 0 -34 6 -35 12 -124 -1 -183 -27 -24 -11 -45 -19 -46
-17 -2 2 -4 40 -4 84 -1 49 -5 82 -11 82 -7 0 -9 -32 -6 -90 5 -80 3 -92 -13
-100 -26 -14 -37 -12 -42 8 -3 11 -5 8 -6 -9 -1 -33 -17 -40 -56 -23 -34 14
-50 38 -65 99 -8 33 -9 35 -7 8 3 -30 1 -32 -28 -31 -17 1 -41 -4 -53 -11 -28
-15 -28 -14 -2 108 11 52 20 109 20 127 l0 33 118 3 c64 2 120 1 125 -3 4 -3
10 -25 13 -50z m340 5 c-3 -26 -6 -68 -7 -93 l0 -46 -19 58 c-10 31 -30 73
-44 92 l-27 35 52 0 52 0 -7 -46z m5394 12 l0 -34 -100 1 -100 2 0 33 0 32
100 0 100 0 0 -34z m187 -28 c-3 -7 -5 -2 -5 12 0 14 2 19 5 13 2 -7 2 -19 0
-25z m-118 -43 c-2 -61 -3 -65 -25 -65 -23 0 -24 3 -24 65 0 63 1 65 25 65 25
0 26 -2 24 -65z m-1961 -23 c3 -37 1 -42 -17 -42 -18 0 -21 6 -21 46 0 38 3
45 18 42 12 -2 18 -15 20 -46z m132 34 c0 -7 3 -28 6 -45 l7 -31 -60 0 -60 0
-6 37 c-4 20 -4 40 -1 45 3 4 30 8 60 8 39 0 54 -4 54 -14z m90 -36 c0 -33 -3
-40 -20 -40 -16 0 -20 7 -20 34 0 24 5 36 18 39 9 3 18 5 20 6 1 0 2 -17 2
-39z m337 18 c-3 -8 -6 -5 -6 6 -1 11 2 17 5 13 3 -3 4 -12 1 -19z m463 -50
c11 -24 20 -54 20 -68 0 -14 10 -59 21 -100 23 -85 19 -210 -6 -210 -8 0 -17
9 -20 20 -3 11 -14 20 -24 20 -14 0 -26 21 -50 90 -17 49 -31 100 -31 114 0
36 10 55 26 49 17 -6 18 10 2 53 -10 29 -9 36 7 54 26 29 33 25 55 -22z m-463
0 c-3 -7 -5 -2 -5 12 0 14 2 19 5 13 2 -7 2 -19 0 -25z m1133 5 c0 -36 -16
-61 -29 -48 -5 6 -12 25 -16 43 -6 30 -5 32 19 32 22 0 26 -5 26 -27z m-52
-15 c15 -57 -2 -64 -37 -17 -19 25 -21 33 -10 40 25 16 38 9 47 -23z m107 22
c4 -6 -3 -25 -13 -43 -20 -32 -20 -32 -1 -56 10 -13 19 -34 19 -47 0 -20 5
-24 28 -23 23 2 24 2 5 6 -27 5 -31 30 -5 36 13 4 11 5 -5 6 -33 1 -28 24 8
45 26 15 33 16 40 5 14 -22 11 -37 -8 -42 -14 -4 -12 -5 5 -6 17 -1 22 -7 22
-26 0 -17 -6 -25 -17 -26 -11 0 -13 -3 -5 -6 14 -5 17 -39 4 -47 -5 -3 -25 6
-45 20 -20 14 -37 21 -37 15 0 -5 16 -19 36 -30 36 -21 36 -22 18 -42 -18 -20
-18 -20 -40 8 -13 15 -23 31 -24 36 0 4 -5 7 -11 7 -6 0 1 -16 15 -35 29 -37
27 -55 -4 -55 -15 0 -21 9 -26 40 -4 22 -10 37 -15 35 -4 -3 -3 -20 2 -38 13
-45 12 -47 -17 -47 -24 0 -25 2 -18 45 3 26 2 45 -3 45 -5 0 -10 -8 -10 -17 1
-75 -5 -83 -38 -59 -18 13 -18 14 4 45 l22 31 -20 26 c-12 15 -21 38 -21 51 0
34 42 73 80 73 16 0 29 3 29 8 -1 4 -1 22 0 40 1 25 5 32 20 32 11 0 23 -5 26
-10z m-5134 -81 c9 -30 9 -42 -1 -53 -12 -15 -77 -33 -86 -24 -9 10 15 141 28
150 17 11 44 -22 59 -73z m3019 71 c0 -5 -16 -10 -35 -10 -19 0 -35 5 -35 10
0 6 16 10 35 10 19 0 35 -4 35 -10z m2170 -39 c0 -11 -61 -43 -68 -37 -3 4 2
22 13 41 17 33 19 34 37 19 10 -10 18 -20 18 -23z m-206 4 c30 -46 12 -61 -34
-26 -20 16 -22 21 -11 35 18 22 26 20 45 -9z m-6 -64 c5 -14 -65 -14 -73 -1
-3 6 -3 19 0 31 l7 20 31 -20 c17 -11 33 -25 35 -30z m436 27 c3 -13 6 -51 6
-85 l0 -63 -51 0 -52 0 7 46 c3 26 6 62 6 80 0 34 0 34 66 43 7 0 14 -9 18
-21z m-1844 -148 l0 -150 -37 0 c-21 0 -61 -3 -90 -6 l-52 -7 2 -66 c2 -65 2
-66 -25 -69 l-28 -3 -2 78 c-1 43 -3 107 -4 143 -1 36 0 100 3 142 l6 77 81 4
c45 1 96 4 114 5 l32 2 0 -150z m-712 103 l3 -33 -200 0 -201 0 0 30 0 29 158
4 c254 5 236 7 240 -30z m439 -39 c-5 -64 -10 -80 -31 -102 -15 -15 -32 -35
-39 -44 -6 -9 -24 -19 -39 -22 -15 -2 -35 -9 -45 -15 -17 -10 -17 -10 0 -11 9
0 17 -7 17 -15 0 -8 7 -15 15 -15 24 0 17 -20 -7 -21 -117 -6 -157 -1 -183 26
-24 23 -25 29 -25 154 l0 130 128 4 c70 1 147 4 171 5 l44 2 -6 -76z m-877
-39 l0 -105 -31 0 -32 0 7 77 c3 42 6 89 6 105 0 23 4 28 25 28 l25 0 0 -105z
m-2616 68 c62 -29 52 -40 -42 -46 -48 -4 -108 -10 -134 -13 -34 -5 -48 -3 -48
5 0 20 111 64 177 70 7 0 28 -6 47 -16z m5166 -9 c0 -7 -15 -18 -32 -24 l-33
-10 38 6 c28 4 37 1 37 -9 0 -15 -41 -47 -59 -47 -12 0 -34 77 -28 94 7 17 77
8 77 -10z m510 -71 c0 -94 -8 -111 -11 -23 -2 73 0 110 6 110 3 0 5 -39 5 -87z
m-2622 33 c1 -2 -1 -29 -4 -60 l-7 -58 -186 7 c-102 4 -189 9 -193 12 -5 2 -8
29 -8 60 l0 56 198 -7 c108 -4 198 -9 200 -10z m-2980 -149 l3 -127 58 0 c58
0 59 -1 65 -31 10 -51 7 -99 -6 -104 -21 -8 -107 -13 -215 -14 -62 -1 -103 -5
-103 -11 0 -5 11 -10 25 -10 20 0 25 -5 25 -23 0 -44 -27 -115 -74 -193 -53
-89 -123 -176 -108 -134 16 43 54 201 49 206 -2 2 -9 -14 -16 -36 -14 -47 -34
-54 -27 -10 5 36 -1 39 -14 8 -6 -16 -9 -18 -9 -7 -1 9 -8 22 -16 29 -13 11
-15 1 -15 -76 0 -49 -5 -96 -10 -104 -7 -11 -10 -2 -10 32 0 39 -7 57 -45 110
-24 35 -79 119 -121 188 -70 113 -78 131 -82 185 -4 55 -1 64 22 92 15 17 40
34 56 38 16 3 46 19 67 34 21 14 58 33 83 41 25 7 51 18 57 23 11 8 243 24
328 22 l30 -1 3 -127z m280 76 c30 -56 82 -186 82 -204 0 -5 -45 -9 -100 -9
-98 0 -100 0 -106 25 -6 23 -11 25 -60 25 -30 0 -54 3 -54 6 0 3 37 52 83 109
99 126 111 130 155 48z m4846 49 c2 -4 -5 -22 -16 -40 -20 -32 -21 -32 -40
-15 -19 17 -19 18 9 40 30 25 39 27 47 15z m-4999 -14 c2 -2 -16 -30 -41 -62
l-44 -59 0 60 c0 33 3 63 7 67 7 7 70 2 78 -6z m2915 -33 c0 -25 -4 -45 -10
-45 -5 0 -10 20 -10 45 0 25 5 45 10 45 6 0 10 -20 10 -45z m2508 -107 c2 -75
0 -98 -10 -98 -33 1 -43 20 -46 94 -5 91 0 108 30 104 22 -3 23 -8 26 -100z
m-88 16 c0 -56 -3 -75 -12 -72 -9 3 -14 30 -16 76 -2 60 0 72 13 72 12 0 15
-14 15 -76z m-1439 -17 c-8 -8 -14 -8 -22 0 -8 8 -6 20 8 44 l18 34 3 -34 c2
-18 -1 -38 -7 -44z m1225 33 c47 0 54 -2 54 -20 0 -11 -5 -20 -11 -20 -5 0 -7
-4 -4 -10 7 -11 -23 -19 -80 -22 -70 -4 -126 2 -120 11 3 5 1 12 -4 15 -5 3
-7 15 -4 25 4 15 16 21 47 24 22 2 47 2 54 0 8 -2 38 -3 68 -3z m-2453 -20
c15 0 17 -12 17 -105 l0 -105 -47 7 c-27 3 -50 7 -51 9 -2 1 -6 49 -9 105 l-6
102 39 -6 c21 -4 47 -7 57 -7z m202 2 c8 -1 15 -6 15 -12 0 -13 -167 -13 -175
-1 -7 13 90 20 160 13z m-341 -33 c3 -17 6 -43 6 -57 l0 -26 -31 30 c-17 16
-40 41 -51 57 l-19 27 44 0 c42 0 45 -2 51 -31z m406 16 c0 -8 -7 -15 -15 -15
-8 0 -15 7 -15 15 0 8 7 15 15 15 8 0 15 -7 15 -15z m1154 -64 l48 -49 -23
-23 c-29 -29 -79 -31 -137 -5 -42 19 -42 19 -42 73 l0 53 53 0 c50 0 55 -3
101 -49z m-245 20 c10 -6 11 -13 2 -29 -6 -11 -11 -41 -11 -65 0 -35 8 -55 35
-93 57 -80 59 -84 36 -84 -14 0 -27 13 -41 39 -10 22 -25 41 -31 43 -14 5 -26
198 -13 198 5 0 15 -4 23 -9z m-999 -22 c0 -15 -4 -19 -16 -15 -9 3 -38 6 -65
6 -37 0 -49 4 -49 15 0 12 14 15 65 15 59 0 65 -2 65 -21z m930 -36 l0 -48
-167 3 c-93 1 -174 5 -180 7 -7 2 -13 20 -13 39 0 43 -4 42 203 45 l157 2 0
-48z m-740 -24 c0 -42 -3 -49 -20 -49 -17 0 -20 7 -20 48 0 53 5 63 26 55 9
-3 14 -21 14 -54z m2258 39 c-2 -17 -11 -24 -30 -26 -24 -3 -28 0 -28 22 0 22
4 26 31 26 26 0 30 -3 27 -22z m42 -3 c0 -16 -6 -25 -15 -25 -9 0 -15 9 -15
25 0 16 6 25 15 25 9 0 15 -9 15 -25z m-382 -7 c3 -16 -5 -18 -67 -18 -65 0
-71 2 -71 20 0 19 5 21 67 18 55 -2 68 -6 71 -20z m70 -71 l3 -88 -27 3 c-26
3 -26 4 -28 86 -1 45 0 85 3 88 3 3 14 4 26 2 18 -3 20 -11 23 -91z m-3705
-27 c-7 -45 -10 -47 -30 -28 -14 15 -18 15 -40 1 -23 -15 -26 -15 -49 9 l-26
25 31 34 c17 18 31 37 31 40 0 21 38 12 61 -15 22 -25 26 -38 22 -66z m1481
84 l46 -7 0 -59 0 -59 -66 3 -66 3 -4 40 c-8 84 -1 91 90 79z m1146 -36 c31
-24 66 -48 76 -54 17 -10 17 -13 -9 -43 -15 -18 -30 -43 -33 -57 -3 -13 -9
-24 -13 -24 -9 0 -63 74 -85 117 -18 36 -22 103 -5 103 6 0 37 -19 69 -42z
m-3681 -20 c5 -13 11 -33 15 -45 l7 -23 -125 0 -126 0 0 45 0 45 110 0 c105 0
111 -1 119 -22z m4096 -12 c52 -52 199 -384 193 -436 -3 -23 -5 -22 -25 17
-13 23 -45 70 -72 106 -80 106 -113 158 -133 206 -10 25 -17 35 -15 21 3 -14
8 -33 12 -42 7 -17 -4 -18 -149 -18 -86 0 -156 3 -156 8 0 23 81 111 122 133
10 6 27 8 37 4 10 -3 24 1 31 10 9 10 31 15 72 15 49 0 63 -4 83 -24z m911 14
c28 0 32 -4 36 -30 3 -17 1 -33 -3 -36 -4 -2 -57 -1 -118 2 -105 7 -110 8
-116 31 -10 41 1 46 89 39 45 -3 95 -6 112 -6z m-342 -22 c3 -7 7 -25 10 -40
l6 -28 -105 0 -105 0 0 40 0 40 95 0 c68 0 97 -4 99 -12z m-1154 -28 c19 -16
41 -29 47 -30 7 0 23 -19 35 -42 19 -37 23 -63 26 -179 l4 -137 -92 4 c-51 2
-94 5 -95 6 -2 2 -5 17 -9 33 -5 27 -2 33 39 60 24 16 42 31 40 34 -3 2 -26
-10 -52 -27 -47 -31 -48 -31 -67 -13 -25 26 -15 67 31 122 l37 44 -45 -42
c-50 -47 -81 -49 -112 -7 -18 24 -18 25 8 72 31 56 50 79 89 110 39 30 75 28
116 -8z m-170 5 c0 -8 -11 -30 -25 -50 -13 -21 -32 -54 -41 -75 -18 -40 -49
-57 -71 -39 -9 8 -10 17 -3 33 9 19 9 19 -2 2 -39 -56 -45 -61 -62 -47 -12 10
-16 32 -16 97 l0 83 33 4 c17 2 67 5 110 5 61 2 77 -1 77 -13z m-255 -41 c7
-52 2 -63 -20 -44 -20 16 -21 90 -1 90 9 0 16 -17 21 -46z m-665 11 c0 -24 3
-25 59 -25 l58 0 7 -46 c3 -26 6 -61 6 -79 l0 -32 -137 -6 c-76 -3 -141 -2
-144 1 -11 12 31 108 63 144 16 18 26 26 23 18 -4 -8 5 0 20 18 32 38 45 41
45 7z m360 11 c0 -8 -4 -17 -9 -21 -5 -3 -12 -19 -16 -35 -4 -17 -11 -30 -16
-30 -10 0 -13 83 -2 93 12 13 43 7 43 -7z m149 -16 c56 -27 56 -28 66 -112 l6
-56 -113 -4 c-62 -2 -117 -1 -122 3 -16 14 84 205 103 197 5 -2 31 -14 60 -28z
m-231 -77 l-3 -98 -27 -3 -28 -3 0 100 0 101 30 0 31 0 -3 -97z m-3138 37 c0
-43 -69 -184 -131 -267 -57 -76 -88 -103 -67 -58 6 14 15 25 20 25 4 0 8 6 8
14 0 8 14 47 31 87 30 69 48 127 63 192 5 23 11 27 41 27 28 0 35 -4 35 -20z
m3048 -63 c2 -64 0 -77 -13 -77 -11 0 -15 11 -15 49 0 27 -3 63 -6 81 -6 28
-4 32 12 28 16 -3 19 -14 22 -81z m-384 1 c-27 -100 -25 -98 -106 -98 l-71 0
19 21 c30 34 167 150 171 145 3 -2 -3 -33 -13 -68z m2258 60 c16 3 16 0 4 -36
-8 -21 -26 -62 -40 -90 -14 -28 -26 -59 -26 -68 0 -15 -37 -53 -52 -54 -4 0 4
30 18 68 14 37 30 85 35 107 5 22 12 50 14 63 4 15 10 20 18 15 7 -4 20 -6 29
-5z m-4754 -45 l3 -43 -61 0 -62 0 7 33 c11 48 23 58 69 55 41 -3 41 -4 44
-45z m313 14 c5 -19 4 -29 -4 -32 -7 -2 -69 -6 -139 -10 l-128 -6 0 41 0 41
132 -3 132 -3 7 -28z m5143 -28 c3 -34 6 -87 6 -117 l0 -55 -42 7 c-23 4 -43
8 -44 9 -1 1 -5 50 -9 110 l-7 107 44 0 45 0 7 -61z m-2105 2 c28 -39 27 -43
-16 -39 -37 3 -38 4 -41 46 -3 41 -2 43 17 33 11 -6 29 -24 40 -40z m1985 -68
c4 -54 3 -93 -2 -93 -12 0 -22 75 -22 154 1 89 16 49 24 -61z m-4890 91 c4 -9
6 -175 5 -368 l-2 -351 -136 3 c-75 2 -137 5 -139 7 -2 1 24 56 56 121 58 117
59 119 93 119 l34 0 3 243 2 242 39 0 c27 0 41 -5 45 -16z m4692 -61 c-35 -43
-73 -87 -85 -97 l-21 -19 0 96 0 97 85 0 86 0 -65 -77z m-4496 54 c44 -15 60
-47 60 -123 l0 -61 -60 -6 c-87 -10 -120 -1 -120 32 0 14 -3 56 -6 93 -6 59
-5 67 12 71 34 8 78 6 114 -6z m4335 -19 c2 -2 7 -62 11 -134 l7 -131 -48 -6
c-26 -4 -94 -7 -151 -7 l-104 0 0 40 c0 24 13 69 33 112 19 40 40 88 47 107
l13 34 95 -6 c51 -3 95 -7 97 -9z m-637 -7 c8 -4 13 -12 13 -17 -2 -21 11 -44
21 -38 6 4 8 2 5 -3 -4 -6 9 -34 28 -62 19 -28 51 -74 70 -102 20 -29 33 -54
31 -57 -3 -2 -20 9 -39 25 -18 16 -69 49 -113 73 -101 55 -224 149 -224 172 0
4 30 9 68 11 37 2 81 4 97 5 17 1 36 -2 43 -7z m938 -267 c-2 -6 -24 -10 -49
-9 -37 1 -44 -1 -40 -14 5 -13 3 -14 -8 -3 -7 6 -25 12 -40 12 -15 0 -31 4
-34 10 -3 5 -20 6 -38 3 -27 -5 -30 -4 -21 8 6 8 39 52 74 99 35 47 81 104
104 128 l41 43 8 -133 c4 -73 5 -138 3 -144z m-1110 188 c50 -49 110 -96 164
-126 47 -27 87 -53 88 -58 2 -4 9 -8 16 -8 7 0 21 -9 32 -21 18 -20 18 -20 -6
-15 -14 3 -62 10 -108 15 -64 7 -92 15 -125 37 -42 27 -176 160 -204 201 -22
33 -10 53 30 53 29 0 46 -12 113 -78z m-796 28 c0 -5 -18 -10 -41 -10 -24 0
-38 4 -34 10 3 6 22 10 41 10 19 0 34 -4 34 -10z m-3237 -9 c9 0 17 -8 17 -17
0 -14 -8 -16 -46 -10 -26 3 -57 6 -70 6 -14 0 -24 6 -24 15 0 11 11 14 53 11
28 -2 60 -4 70 -5z m-183 -67 l0 -66 -27 6 c-16 3 -52 8 -80 11 -61 8 -66 21
-32 79 20 35 23 36 80 36 l59 0 0 -66z m378 38 c3 -22 2 -23 -70 -20 -68 3
-73 5 -76 26 -3 22 -2 23 70 20 68 -3 73 -5 76 -26z m3017 -134 c-17 -69 -64
-154 -107 -195 -37 -35 -35 -20 7 68 27 57 35 86 35 129 l-1 55 -24 -70 c-13
-38 -35 -96 -48 -128 l-25 -59 -16 49 c-8 26 -18 73 -22 103 l-6 55 -72 0 -71
0 -3 51 c-3 49 -2 52 25 57 15 3 95 6 178 7 82 0 152 3 155 6 13 14 10 -71 -5
-128z m131 117 c49 -20 107 -68 124 -102 8 -15 21 -34 29 -42 9 -10 12 -31 8
-65 -4 -42 -10 -55 -43 -83 -46 -42 -73 -56 -141 -76 -54 -16 -69 -12 -33 10
44 28 152 204 135 221 -8 9 -30 -18 -60 -73 -15 -27 -39 -63 -53 -78 -30 -32
-110 -82 -118 -74 -3 2 8 26 25 51 16 26 35 71 42 99 6 29 21 70 32 92 l20 40
-21 -19 c-12 -10 -28 -41 -37 -70 -29 -93 -46 -121 -97 -159 -27 -21 -52 -36
-55 -33 -3 3 17 36 45 74 51 68 78 130 101 227 19 79 33 87 97 60z m-1874 -25
c55 -25 158 -105 147 -113 -16 -12 -134 -25 -155 -16 -32 12 -107 10 -159 -3
-22 -6 -71 -10 -109 -10 l-69 2 6 -35 c4 -26 2 -35 -8 -35 -12 0 -31 36 -27
51 2 11 -101 9 -114 -2 -10 -8 -17 -7 -28 4 -13 13 -9 20 42 64 31 27 79 64
105 82 l48 33 37 -25 c52 -36 85 -42 107 -21 10 10 24 19 32 20 8 1 24 9 36
18 30 21 37 20 109 -14z m2390 -30 c3 -57 2 -60 -19 -60 -21 0 -23 4 -23 60 0
52 2 60 19 60 16 0 20 -9 23 -60z m-3878 14 l46 -7 0 -88 0 -88 -34 14 c-19 8
-56 27 -83 43 -47 27 -48 30 -51 80 l-3 52 39 0 c22 0 60 -3 86 -6z m2248 -8
c8 -7 13 -31 13 -52 l0 -39 -45 0 -45 0 -3 53 -3 52 35 0 c19 0 41 -6 48 -14z
m88 -47 c0 -43 -3 -50 -17 -47 -14 2 -19 15 -21 51 -3 42 -1 47 17 47 18 0 21
-6 21 -51z m500 34 c0 -34 -12 -62 -24 -57 -7 3 -12 -5 -13 -18 0 -13 1 -17 4
-10 4 10 8 9 18 -5 9 -12 10 -23 2 -40 -11 -26 -50 -33 -41 -8 4 8 2 15 -4 15
-5 0 -7 18 -5 44 5 37 2 44 -15 48 -22 6 -42 -8 -42 -29 0 -20 -28 -15 -35 6
-3 11 -13 25 -22 33 -14 11 -16 11 -10 -4 3 -9 1 -19 -6 -21 -15 -5 -38 3 -33
12 3 4 -4 8 -16 8 -13 1 -18 -3 -14 -12 3 -8 1 -17 -4 -20 -5 -3 -6 -13 -3
-21 5 -13 7 -13 14 -2 7 11 11 10 19 -2 5 -8 10 -10 10 -5 0 6 9 16 20 23 27
16 23 -3 -7 -37 -20 -22 -30 -24 -142 -29 l-121 -5 0 77 0 76 235 0 c217 0
235 -1 235 -17z m-2702 -28 c-6 -14 -15 -25 -20 -25 -4 0 -8 11 -8 25 0 18 5
25 20 25 17 0 18 -3 8 -25z m82 -85 c0 -98 -2 -110 -17 -110 -35 0 -94 21
-100 35 -4 12 101 185 113 185 2 0 4 -49 4 -110z m5130 80 c0 -5 -21 -10 -47
-9 -39 1 -43 2 -23 9 36 12 70 12 70 0z m-1312 -29 c54 -43 128 -78 200 -92
55 -12 62 -16 62 -37 0 -23 -1 -23 -67 -16 -63 6 -70 10 -114 55 -26 26 -60
51 -75 55 -38 9 -54 22 -54 45 0 25 5 24 48 -10z m-3497 -48 c0 -32 2 -70 4
-85 4 -28 4 -28 -60 -28 -35 0 -70 -3 -79 -6 -14 -5 -16 5 -16 79 0 59 4 87
13 90 6 3 40 6 75 6 l62 1 1 -57z m357 38 c-1 -4 -42 -38 -90 -74 l-88 -66 0
75 0 74 91 0 c50 0 89 -4 87 -9z m-1073 -31 c106 -42 296 -132 291 -138 -3 -2
-35 -10 -73 -18 -37 -7 -98 -22 -134 -33 -37 -10 -71 -15 -75 -11 -5 4 -69 44
-142 88 l-132 80 87 30 c49 17 91 31 95 31 4 1 42 -13 83 -29z m855 -20 l0
-50 -40 0 c-22 0 -40 4 -40 8 0 9 69 92 76 92 2 0 4 -22 4 -50z m2232 -51 c2
-75 1 -89 -12 -87 -12 3 -16 23 -18 95 -2 78 0 92 12 87 11 -4 15 -28 18 -95z
m80 1 c1 -49 2 -102 2 -117 1 -23 -3 -28 -24 -28 l-25 0 -2 118 -3 117 25 0
c25 0 25 -1 27 -90z m2338 -86 l0 -154 -34 0 c-30 0 -34 3 -38 30 -3 16 -1 33
3 37 4 5 4 28 -1 53 -5 25 -9 77 -10 117 0 77 6 84 58 75 22 -4 22 -7 22 -158z
m-1652 150 c37 -8 50 -45 28 -79 -19 -29 -74 -63 -114 -71 l-32 -6 16 32 c11
20 15 46 11 70 -7 57 14 69 91 54z m271 -12 c7 -13 7 -22 -1 -30 -8 -8 -8 -15
1 -25 6 -8 17 -45 25 -83 l14 -69 1 55 c1 58 21 111 21 58 0 -16 4 -28 9 -28
4 0 11 -23 14 -52 5 -40 2 -61 -15 -97 -12 -25 -20 -49 -20 -53 1 -5 -7 -8
-18 -8 -13 0 -17 5 -14 14 4 10 -2 16 -17 18 -21 3 -23 8 -22 53 3 57 0 53
-17 -27 -10 -52 -13 -56 -30 -46 -10 7 -21 20 -23 29 -3 10 -15 19 -28 21 -16
2 -26 13 -33 33 -19 65 -23 68 -18 15 3 -43 0 -59 -12 -69 -9 -7 -16 -22 -16
-32 0 -27 -9 -24 -65 22 -70 58 -120 82 -155 74 -41 -9 -82 -60 -104 -130 -10
-33 -21 -67 -24 -75 -3 -9 -9 2 -14 25 -10 45 -2 145 13 145 5 0 9 5 9 10 0 6
-16 10 -35 10 -19 0 -35 4 -35 9 0 17 64 30 180 37 93 5 124 11 162 30 l48 24
0 61 0 60 43 19 c58 27 162 28 176 2z m1081 -13 c0 -14 -37 -10 -43 4 -4 10 2
13 19 9 13 -2 24 -8 24 -13z m-990 -4 c68 -35 85 -96 54 -188 -21 -63 -33 -68
-22 -9 9 51 3 98 -14 108 -7 4 -8 2 -4 -4 4 -7 1 -12 -8 -12 -10 0 -16 12 -18
35 -2 20 -7 35 -12 34 -11 -1 -26 21 -26 39 0 16 15 15 50 -3z m910 -10 c0
-10 -10 -15 -30 -15 -26 0 -28 -2 -21 -22 5 -13 14 -22 21 -20 7 1 21 0 32 -4
15 -4 17 -8 8 -14 -7 -4 -13 -18 -14 -31 -1 -27 -45 -56 -69 -46 -14 5 -17 21
-17 81 l0 75 43 4 c23 2 43 4 45 5 1 1 2 -5 2 -13z m-2342 -17 c-22 -34 -75
-61 -116 -60 -53 0 -116 24 -120 45 -5 26 26 32 78 14 44 -16 49 -16 101 3 69
25 74 25 57 -2z m2588 -94 l4 -101 -57 -16 c-64 -17 -83 -11 -83 29 0 18 -6
24 -21 24 -19 0 -20 2 -8 17 12 15 12 16 -3 10 -19 -7 -32 20 -22 47 4 10 1
16 -9 16 -9 0 -14 10 -14 25 0 20 3 24 18 20 14 -5 17 -2 13 9 -3 8 -18 17
-32 19 -15 2 26 3 92 3 l118 -1 4 -101z m-366 27 l0 -70 -52 -4 c-29 -2 -1 -3
62 -3 92 1 116 4 121 16 5 11 10 7 19 -15 7 -16 19 -45 26 -64 13 -28 13 -33
1 -28 -9 3 -5 -12 12 -44 24 -46 41 -62 41 -39 0 6 -5 10 -11 10 -5 0 -7 5 -3
11 3 6 0 16 -7 21 -10 7 -9 8 6 3 11 -4 26 -8 33 -8 7 0 11 -6 8 -14 -4 -10 7
-13 43 -13 l48 0 5 -91 c5 -80 3 -94 -13 -110 -21 -21 -24 -35 -10 -44 6 -3
14 3 20 12 9 15 10 13 11 -14 0 -17 5 -35 11 -39 8 -4 9 1 5 17 -6 20 -5 21 4
6 16 -25 58 -66 63 -60 3 2 5 -22 5 -54 1 -32 4 -93 7 -135 3 -48 1 -79 -5
-83 -6 -4 -8 -11 -5 -16 4 -5 -13 -9 -37 -9 -28 0 -38 3 -29 9 9 6 10 11 2 15
-13 8 -15 58 -2 71 9 11 41 123 41 144 0 8 -6 11 -16 7 -25 -10 -64 20 -64 49
0 14 5 25 12 25 6 0 1 11 -12 25 -15 16 -26 21 -30 14 -5 -7 -9 -5 -13 6 -5
10 -3 14 5 9 7 -4 8 -3 4 5 -4 6 -11 9 -16 6 -10 -6 -22 9 -60 80 -17 33 -29
52 -26 43 3 -10 1 -18 -4 -18 -5 0 -21 -20 -35 -44 -19 -32 -25 -56 -23 -83 4
-50 25 -53 73 -8 22 19 44 34 50 32 5 -2 11 -28 12 -58 2 -41 0 -49 -7 -31
-11 25 -28 29 -36 7 -4 -8 -11 -12 -17 -8 -6 3 -21 -7 -34 -23 -15 -18 -21
-22 -17 -10 6 16 4 18 -17 13 -13 -4 -32 -7 -42 -7 -9 0 -30 -12 -46 -28 -36
-34 -27 -62 19 -62 36 0 39 -17 5 -26 -29 -7 -34 -24 -7 -24 50 0 71 62 24 68
-34 5 -25 37 11 38 26 1 27 -1 27 -47 0 -27 5 -49 10 -49 6 0 10 14 10 30 0
27 2 30 19 20 21 -10 51 -4 51 11 0 5 -10 9 -22 9 -21 0 -21 0 -2 15 19 14 19
14 -1 15 -18 0 -18 1 -2 18 16 15 19 15 27 2 5 -8 10 -25 10 -37 0 -36 20 -27
21 10 l1 32 14 -33 c11 -26 18 -31 28 -23 7 6 16 8 19 4 4 -3 7 8 7 26 l0 32
30 -22 c33 -25 34 -53 5 -110 -8 -15 -15 -37 -15 -49 0 -11 -7 -20 -15 -20
-18 0 -19 14 -5 41 8 14 7 19 -3 19 -8 0 -19 -10 -25 -22 -10 -21 -11 -20 -11
15 -1 20 -5 37 -10 37 -10 0 -15 -14 -25 -65 -6 -25 -11 -30 -36 -29 -16 0
-36 7 -45 14 -12 10 -21 11 -33 3 -20 -12 -29 -43 -13 -43 6 0 11 7 11 15 0 8
5 15 10 15 14 0 13 -13 -2 -28 -17 -17 -2 -28 17 -12 10 8 15 9 15 1 0 -6 -5
-11 -11 -11 -5 0 -8 -4 -5 -9 3 -4 26 -7 51 -6 34 2 45 -1 45 -12 0 -10 -7
-14 -20 -10 -29 8 -24 -10 8 -27 15 -8 23 -15 17 -16 -5 0 -33 13 -61 30 -63
36 -125 105 -161 179 -23 49 -27 69 -28 151 0 88 3 100 33 162 20 40 49 81 74
103 l41 35 19 -38 c17 -34 18 -35 12 -7 -7 37 -51 135 -61 135 -9 0 -63 -51
-63 -60 0 -3 19 -4 43 -2 23 3 40 2 37 0 -3 -2 -29 -27 -59 -54 -30 -27 -51
-44 -48 -37 4 6 3 14 -2 18 -6 3 -8 13 -5 23 3 9 -4 5 -15 -10 -12 -14 -73
-88 -136 -163 -63 -75 -115 -141 -115 -145 0 -5 5 -12 10 -15 6 -3 10 1 10 9
0 8 27 48 60 90 l60 74 30 -30 c27 -27 33 -57 9 -42 -19 12 -74 -6 -106 -35
-50 -44 -41 -70 12 -35 23 15 25 15 25 0 0 -9 -6 -25 -12 -36 -10 -16 -10 -22
1 -32 10 -10 15 -10 18 -1 7 19 44 63 53 63 4 0 10 -10 14 -22 5 -19 8 -21 16
-8 8 13 10 12 10 -4 0 -34 -28 -55 -65 -49 -37 6 -95 -26 -95 -53 0 -17 26
-19 34 -1 3 6 4 -5 1 -25 -5 -31 -3 -38 11 -38 9 0 25 12 37 26 20 26 21 26
28 5 10 -25 24 -26 61 -7 26 14 29 13 49 -17 12 -18 36 -47 53 -65 20 -21 25
-32 15 -33 -7 0 -52 -3 -99 -6 -197 -12 -220 -7 -220 41 0 59 -7 68 -40 51
-16 -8 -38 -15 -50 -15 -17 0 -20 -6 -20 -39 0 -22 5 -41 13 -44 19 -7 0 -20
-33 -22 -19 -1 -30 3 -30 12 0 7 4 13 9 13 5 0 11 18 13 39 3 36 0 41 -31 57
-18 10 -38 31 -43 46 -10 29 -28 38 -28 14 0 -30 -55 -121 -97 -162 -24 -24
-69 -55 -101 -71 -49 -24 -68 -27 -142 -27 -123 2 -186 29 -271 113 -84 84
-112 150 -113 266 0 66 4 90 26 138 15 31 34 67 42 79 l16 22 0 -27 c0 -16 -4
-26 -9 -23 -4 3 -13 -6 -19 -19 -7 -14 -8 -25 -3 -25 9 0 6 -64 -4 -80 -3 -6
0 -10 7 -10 10 0 10 -2 -1 -9 -7 -5 -10 -14 -7 -20 4 -6 5 -11 2 -11 -3 0 -12
12 -21 28 -15 26 -16 23 -12 -59 4 -65 11 -98 31 -141 29 -61 113 -151 134
-143 7 2 11 1 7 -4 -3 -5 16 -20 42 -33 40 -19 64 -23 143 -23 84 0 102 3 152
28 75 37 151 120 173 189 10 29 21 57 26 62 5 6 9 13 9 17 0 6 -158 32 -210
34 -50 2 -130 29 -130 43 0 11 3 12 13 4 7 -6 33 -13 57 -16 34 -4 39 -3 20 3
-23 8 -22 9 13 10 25 1 37 -3 37 -13 0 -8 13 -16 29 -18 31 -5 42 11 49 69 1
6 19 17 40 23 20 7 41 16 46 20 4 5 -4 31 -19 59 -27 48 -30 51 -69 51 l-41 1
22 18 c23 19 14 44 -13 34 -10 -3 -12 0 -9 10 7 17 -21 31 -31 15 -4 -7 -3 -8
4 -4 8 5 12 -1 12 -17 0 -26 -33 -63 -48 -54 -4 3 -22 -18 -39 -48 -23 -40
-27 -52 -15 -47 15 5 15 4 3 -11 -8 -10 -16 -15 -19 -13 -2 3 -14 -1 -26 -9
-32 -23 -163 -20 -203 4 -30 19 -31 22 -22 56 15 54 5 67 -13 15 l-15 -45 -21
34 c-25 42 -24 112 3 141 50 56 175 86 280 69 106 -17 135 -8 50 15 -38 11
-71 20 -73 22 -2 1 13 26 32 54 20 29 36 58 36 66 0 8 9 23 20 34 25 25 101
28 120 5 9 -11 16 -12 26 -4 14 11 34 5 34 -12 0 -5 -6 -9 -14 -9 -7 0 -19 -6
-25 -14 -9 -11 -8 -15 4 -20 9 -3 13 -2 10 4 -12 19 48 30 171 30 l124 0 0 74
c0 50 4 76 13 79 6 3 60 6 120 6 l107 1 0 -69z m-396 20 c3 -5 -1 -11 -9 -15
-8 -3 -15 -1 -15 4 0 6 -5 10 -11 10 -5 0 -7 -4 -4 -10 4 -6 -5 -10 -19 -10
-32 0 -34 17 -3 23 40 8 56 7 61 -2z m-1397 -33 c-3 -7 -5 -2 -5 12 0 14 2 19
5 13 2 -7 2 -19 0 -25z m-1244 8 c32 -24 20 -37 -30 -34 -41 3 -48 6 -51 26
-3 19 1 22 30 22 18 0 41 -7 51 -14z m-1734 -142 c-29 -49 -78 -144 -110 -210
l-59 -121 -46 -7 c-26 -3 -64 -6 -86 -6 -36 0 -39 2 -33 23 9 27 136 351 140
355 2 2 54 14 116 28 61 13 114 26 117 29 20 19 5 -14 -39 -91z m1738 82 c3
-3 -2 -9 -12 -12 -9 -4 -20 -2 -24 3 -3 6 -15 13 -26 16 -11 3 -3 4 18 2 21
-1 41 -6 44 -9z m-1258 -5 c9 -6 15 -41 19 -120 l5 -112 -99 3 -99 3 0 110 0
110 45 6 c71 9 114 9 129 0z m305 -27 c24 -23 19 -27 -9 -8 -14 9 -25 18 -25
20 0 10 20 3 34 -12z m4206 -24 c0 -5 -2 -10 -4 -10 -3 0 -8 5 -11 10 -3 6 -1
10 4 10 6 0 11 -4 11 -10z m-2720 -30 l0 -30 -95 0 -95 0 0 30 0 30 95 0 95 0
0 -30z m336 -10 c103 0 164 -4 164 -10 0 -6 30 -10 71 -10 44 0 68 -4 64 -10
-3 -5 -21 -11 -38 -11 -24 -1 -26 -3 -9 -6 12 -2 22 -8 22 -12 0 -4 28 -13 63
-21 47 -9 66 -18 73 -34 7 -16 18 -21 47 -21 31 -1 35 2 23 11 -9 6 -16 25
-16 43 l0 31 104 0 103 0 7 -52 c12 -92 65 -287 91 -341 15 -29 47 -85 73
-125 39 -60 56 -77 100 -98 28 -15 52 -33 52 -41 0 -8 5 -11 10 -8 18 11 11
-3 -15 -31 -14 -15 -25 -23 -25 -19 0 4 -10 1 -22 -7 -25 -16 -118 -13 -118 3
0 6 -9 5 -21 -2 -17 -8 -20 -8 -14 1 5 8 3 11 -6 8 -8 -3 -13 -9 -12 -14 1 -5
-38 -9 -85 -8 -130 1 -133 2 -130 21 3 17 -1 19 -42 22 -14 1 -20 8 -20 27 0
14 -4 22 -10 19 -5 -3 5 24 22 61 59 127 46 295 -32 401 -29 39 -117 113 -135
113 -5 0 10 -13 31 -29 22 -15 52 -43 67 -62 15 -19 31 -39 36 -45 5 -6 19
-41 31 -77 33 -97 26 -218 -17 -302 -38 -74 -115 -148 -191 -182 -47 -22 -72
-26 -147 -27 -96 -1 -147 15 -225 69 -32 22 -110 113 -110 128 0 15 39 -10 82
-54 26 -26 73 -60 105 -75 51 -25 69 -28 148 -28 62 0 102 6 128 17 20 10 37
18 37 20 0 1 -11 2 -24 2 -13 0 -22 -3 -19 -7 2 -5 0 -8 -6 -8 -5 0 -12 8 -14
18 -3 12 -5 9 -6 -8 -2 -24 -2 -24 -14 -4 -7 11 -22 20 -34 20 -13 0 -23 4
-22 9 1 6 5 9 10 7 5 -1 10 10 10 25 0 16 1 56 2 90 2 43 5 59 13 52 6 -5 14
-5 18 -1 4 4 6 2 4 -3 -4 -14 27 -57 35 -48 4 3 -1 15 -10 26 -17 19 -17 20 4
8 14 -7 24 -8 28 -1 3 6 18 7 32 4 21 -6 24 -4 17 7 -6 10 -2 10 16 -2 20 -13
26 -26 28 -68 3 -49 2 -51 -22 -51 -29 0 -33 -11 -12 -29 10 -9 22 -1 55 35
40 42 58 75 76 133 4 13 3 21 -1 18 -5 -3 -9 49 -8 114 0 66 -3 125 -7 131 -5
8 -14 9 -31 1 -21 -9 -23 -16 -23 -99 0 -68 -3 -88 -13 -86 -7 1 -40 5 -72 9
-33 3 -57 9 -54 14 2 4 -5 13 -17 19 -17 9 -20 9 -14 0 5 -8 3 -11 -6 -8 -8 3
-13 15 -11 26 2 12 0 22 -5 22 -19 -1 -38 -27 -37 -53 1 -30 -12 -44 -39 -44
-20 0 -12 12 9 12 7 0 13 5 12 10 -4 27 -11 45 -18 45 -7 0 -21 -24 -24 -40
-4 -20 -38 -49 -71 -61 -22 -8 -44 -20 -48 -26 -10 -16 -39 -17 -54 -2 -21 21
-2 47 43 59 56 16 57 32 2 24 -28 -4 -38 -2 -30 4 11 7 11 10 -2 15 -12 5 -16
0 -17 -16 -1 -18 -2 -19 -6 -3 -4 16 -12 18 -64 12 -50 -6 -59 -5 -59 9 0 14
11 16 63 14 35 -1 68 0 73 3 5 2 32 6 59 7 86 5 64 12 -30 11 -50 -1 -108 -1
-130 0 -37 1 -38 2 -15 11 13 5 47 10 75 9 58 -1 107 9 116 23 4 5 15 5 29 -3
12 -6 24 -10 26 -8 2 3 -20 38 -48 79 -29 41 -45 69 -37 62 32 -25 109 -151
103 -167 -4 -10 -1 -16 9 -16 17 0 15 25 -7 90 -19 56 -6 131 32 186 18 24 32
47 32 49 0 11 -79 4 -127 -10 -35 -10 -52 -21 -56 -35 -3 -13 -11 -18 -20 -14
-23 9 -99 -66 -131 -129 -18 -37 -29 -77 -33 -126 l-6 -72 69 5 69 5 -70 -15
c-38 -8 -99 -16 -135 -17 -60 -2 -65 0 -62 18 2 11 8 24 12 29 12 12 42 -13
36 -30 -3 -8 0 -11 10 -7 10 4 14 13 10 27 -3 11 -6 29 -6 39 0 9 -8 17 -17
17 -17 1 -17 1 0 11 11 6 17 22 17 43 0 53 64 168 121 220 28 25 55 43 60 40
19 -11 8 15 -22 52 -49 61 -52 56 -5 -8 11 -15 17 -31 13 -34 -4 -4 -9 0 -12
7 -4 10 -17 13 -46 11 -55 -6 -63 6 -40 52 11 21 18 45 15 54 -3 11 1 9 12 -5
16 -22 22 -23 180 -23z m-1716 -10 c0 -22 -20 -70 -30 -70 -9 0 -42 71 -36 77
11 11 35 -7 39 -29 3 -17 5 -15 6 10 1 34 21 46 21 12z m2672 -7 c47 -32 131
-141 121 -156 -5 -8 -8 -7 -11 1 -5 17 -22 5 -22 -16 0 -9 -13 -37 -29 -61
-27 -41 -29 -42 -36 -20 -4 12 -7 54 -6 93 1 53 -1 68 -10 59 -8 -8 -11 -72
-10 -209 l2 -198 -21 19 c-11 10 -37 52 -57 93 -29 58 -39 91 -44 151 l-6 76
-1 -75 c-1 -59 4 -88 23 -135 15 -35 21 -62 15 -65 -6 -4 8 -30 30 -60 45 -61
45 -60 26 -60 -31 0 -78 56 -118 139 -34 72 -42 99 -46 163 -4 66 -1 82 17
111 11 19 21 46 21 60 0 14 4 28 9 32 5 3 12 18 16 33 4 18 16 32 33 39 43 17
63 15 104 -14z m1751 -69 c121 -62 217 -216 217 -350 0 -77 -38 -170 -94 -232
-48 -52 -131 -103 -166 -101 -8 0 2 7 22 14 92 34 170 113 204 207 23 64 20
181 -6 250 -26 70 -103 158 -174 199 -54 31 -56 40 -3 13z m-164 -118 c1 -98
-5 -78 -12 34 -3 54 -2 82 3 65 4 -16 8 -61 9 -99z m66 42 c10 -121 4 -203
-15 -203 -21 0 -38 87 -39 198 -1 86 -1 87 23 87 23 0 25 -4 31 -82z m-4332
50 c3 -10 4 -18 3 -18 -2 0 -10 8 -19 18 -14 15 -14 19 -3 19 8 0 17 -9 19
-19z m1711 -85 c17 7 24 -17 8 -27 -11 -7 -52 30 -52 46 0 7 6 3 14 -7 8 -11
19 -16 30 -12z m2176 -3 c-6 -12 -14 -19 -17 -17 -2 3 1 15 7 27 6 12 14 19
17 17 2 -3 -1 -15 -7 -27z m-2130 -51 c0 -6 -4 -7 -10 -4 -5 3 -10 11 -10 16
0 6 5 7 10 4 6 -3 10 -11 10 -16z m2109 -30 c-8 -16 -14 -18 -22 -10 -9 9 -8
14 3 21 24 16 31 11 19 -11z m261 8 c0 -17 -56 -71 -63 -60 -11 17 22 73 43
73 11 0 20 -6 20 -13z m-5991 -41 c-2 -2 -13 8 -23 22 l-19 27 24 -22 c12 -12
21 -24 18 -27z m1251 28 c2 -3 8 -75 12 -162 9 -167 21 -218 64 -261 25 -24
32 -51 14 -51 -5 0 -10 5 -10 11 0 12 -18 9 -79 -10 l-33 -10 6 30 c3 19 2 28
-4 24 -6 -3 -10 -21 -11 -38 0 -18 -3 -26 -6 -20 -3 9 -10 10 -21 4 -18 -9
-72 -4 -72 8 0 3 -2 116 -5 250 l-6 243 73 -7 c40 -4 75 -9 78 -11z m-919 -3
c-11 -7 -10 -16 7 -52 24 -53 40 -135 23 -125 -6 4 -11 2 -11 -3 0 -6 5 -11
10 -11 6 0 10 -9 10 -20 0 -22 -1 -23 -23 -14 -11 4 -13 13 -7 40 4 19 4 34
-1 34 -5 0 -9 -6 -9 -12 0 -9 -4 -8 -11 2 -9 12 -10 11 -6 -7 3 -13 1 -23 -3
-23 -8 0 -19 170 -12 188 1 4 12 9 25 9 16 2 18 0 8 -6z m4859 -28 c0 -37 -23
-73 -45 -73 -7 0 -20 11 -29 25 -18 27 -21 39 -7 30 12 -7 34 32 26 45 -4 6 7
10 24 10 29 0 31 -2 31 -37z m-468 -73 c-6 -11 -12 -30 -12 -42 0 -13 -5 -30
-10 -38 -7 -11 -10 3 -10 45 0 33 -3 71 -6 85 l-7 25 29 -28 c25 -23 27 -30
16 -47z m-1204 5 c-3 -3 -9 2 -12 12 -6 14 -5 15 5 6 7 -7 10 -15 7 -18z
m2544 -27 c2 -21 0 -38 -4 -38 -4 0 -8 21 -7 48 1 52 6 48 11 -10z m-978 17
c9 -13 16 -27 16 -31 0 -6 -110 2 -117 10 -4 3 62 41 78 45 4 0 14 -10 23 -24z
m-237 -21 l40 -6 -19 -36 c-37 -70 -56 -97 -67 -94 -6 1 -10 -1 -9 -5 3 -15
-15 -44 -33 -54 -17 -9 -18 -7 -9 16 5 14 6 25 1 25 -10 0 -15 149 -5 173 5
15 9 15 34 2 15 -8 46 -17 67 -21z m843 23 c0 -2 -9 -12 -19 -21 -19 -17 -19
-17 -14 3 3 12 12 21 19 21 8 0 14 -2 14 -3z m-2539 -58 c17 -27 37 -49 44
-49 17 0 32 -43 16 -48 -23 -8 -10 -24 16 -19 16 3 32 -1 40 -9 8 -8 10 -14 4
-14 -6 0 -8 -6 -5 -14 8 -20 -50 -31 -85 -16 -37 15 -66 68 -57 103 4 18 11
24 22 20 10 -4 7 8 -13 40 -15 25 -30 44 -34 41 -4 -2 -10 -1 -13 4 -2 4 4 9
15 9 14 1 29 -13 50 -48z m149 0 c0 -18 -2 -19 -15 -9 -8 7 -15 16 -15 21 0 5
7 9 15 9 9 0 15 -9 15 -21z m1642 14 c-6 -2 -10 -9 -6 -14 3 -5 0 -9 -5 -9 -6
0 -11 7 -11 15 0 8 8 15 18 14 10 0 12 -3 4 -6z m-1752 -13 c0 -5 -5 -10 -11
-10 -5 0 -7 5 -4 10 3 6 8 10 11 10 2 0 4 -4 4 -10z m630 -20 c0 -5 -2 -10 -4
-10 -3 0 -8 5 -11 10 -3 6 -1 10 4 10 6 0 11 -4 11 -10z m1140 -10 c0 -5 -5
-10 -11 -10 -6 0 -9 -5 -7 -12 6 -17 40 -19 52 -2 8 10 22 12 54 6 l43 -7 -29
-41 c-44 -60 -181 -122 -239 -108 l-24 7 24 26 c34 38 67 87 67 102 0 19 31
49 52 49 10 0 18 -4 18 -10z m-4622 -39 c26 -14 30 -52 7 -71 -12 -10 -18 -10
-30 0 -16 14 -11 31 8 26 7 -1 9 -1 5 1 -5 3 -8 13 -8 24 0 10 -4 19 -10 19
-5 0 -10 8 -10 18 0 10 3 13 8 6 4 -6 17 -16 30 -23z m3174 -12 c-2 -8 -4 -21
-5 -30 -1 -11 -18 -21 -49 -29 -26 -6 -46 -16 -42 -21 3 -5 0 -9 -5 -9 -6 0
-11 5 -11 10 0 6 -12 10 -27 10 -16 0 -23 4 -17 8 6 4 10 20 10 36 -1 39 20
44 27 6 5 -25 11 -30 34 -29 27 0 28 1 6 11 -35 17 -27 34 20 45 50 12 63 10
59 -8z m1686 12 c10 -6 1 -19 -34 -49 -25 -23 -58 -48 -73 -56 -98 -50 -131
-64 -171 -69 -43 -6 -41 -5 39 33 46 22 87 40 90 40 3 0 29 24 56 54 50 54 68
63 93 47z m562 -42 c0 -8 -42 -20 -49 -14 -2 3 4 11 14 19 11 8 15 18 11 27
-4 8 0 5 8 -5 9 -11 16 -23 16 -27z m-102 2 c-7 -9 -14 -18 -15 -20 -2 -2 -3
5 -3 16 0 11 7 20 15 20 12 0 12 -3 3 -16z m-5338 -71 c5 0 11 6 13 13 4 9 6
9 6 -1 1 -7 -6 -15 -14 -18 -8 -4 -15 -15 -15 -26 0 -10 -4 -16 -10 -13 -10 6
-11 52 -1 70 3 6 7 2 9 -7 2 -10 7 -18 12 -18z m3190 -15 l25 -14 -32 -1 c-31
0 -49 11 -36 24 9 8 14 7 43 -9z m146 -22 c-8 -16 -22 -37 -31 -48 -16 -19
-17 -19 -3 5 8 14 20 35 27 48 6 12 14 22 17 22 2 0 -2 -12 -10 -27z m51 -80
c-2 -21 -4 -4 -4 37 0 41 2 58 4 38 2 -21 2 -55 0 -75z m-393 56 c-3 -5 -11
-9 -17 -9 -8 0 -8 3 2 9 9 6 10 11 2 15 -6 4 -11 13 -11 19 0 7 7 3 15 -7 8
-10 12 -23 9 -27z m2656 31 c0 -5 -4 -10 -10 -10 -5 0 -10 5 -10 10 0 6 5 10
10 10 6 0 10 -4 10 -10z m120 -20 c0 -27 -3 -30 -31 -30 -22 0 -28 4 -22 13 4
6 6 20 5 30 -2 12 4 17 22 17 22 0 26 -4 26 -30z m-75 10 c-3 -5 -11 -10 -16
-10 -6 0 -7 5 -4 10 3 6 11 10 16 10 6 0 7 -4 4 -10z m-2665 -19 c0 -5 -7 -11
-14 -14 -10 -4 -13 -1 -9 9 6 15 23 19 23 5z m1740 -1 c-11 -7 -11 -10 -2 -10
7 0 10 -5 6 -11 -4 -8 -9 -7 -15 2 -9 15 -3 29 14 29 7 0 6 -4 -3 -10z m17
-46 c-3 -3 -12 -4 -19 -1 -8 3 -5 6 6 6 11 1 17 -2 13 -5z m-1506 -27 c-10 -9
-11 -8 -5 6 3 10 9 15 12 12 3 -3 0 -11 -7 -18z m506 -3 c-3 -3 -12 -4 -19 -1
-8 3 -5 6 6 6 11 1 17 -2 13 -5z m-4072 -34 c3 -5 2 -10 -4 -10 -5 0 -13 5
-16 10 -3 6 -2 10 4 10 5 0 13 -4 16 -10z"></path>
<path d="M3035 3930 c-10 -11 -15 -20 -11 -20 11 0 39 30 34 36 -3 2 -13 -5
-23 -16z"></path>
<path d="M130 3711 c0 -11 5 -23 10 -26 6 -3 10 1 10 9 0 9 0 19 1 23 0 4 -4
9 -10 11 -6 2 -11 -5 -11 -17z"></path>
<path d="M5431 2334 c0 -11 3 -14 6 -6 3 7 2 16 -1 19 -3 4 -6 -2 -5 -13z"></path>
<path d="M5460 1975 c0 -8 2 -15 4 -15 2 0 6 7 10 15 3 8 1 15 -4 15 -6 0 -10
-7 -10 -15z"></path>
<path d="M5471 1934 c0 -11 3 -14 6 -6 3 7 2 16 -1 19 -3 4 -6 -2 -5 -13z"></path>
<path d="M5511 1894 c0 -11 3 -14 6 -6 3 7 2 16 -1 19 -3 4 -6 -2 -5 -13z"></path>
<path d="M4920 2233 c0 -6 7 -24 16 -39 l16 -29 -7 30 c-7 31 -25 59 -25 38z"></path>
<path d="M306 2513 c-6 -14 -5 -15 5 -6 7 7 10 15 7 18 -3 3 -9 -2 -12 -12z"></path>
<path d="M353 2360 c0 -25 2 -35 4 -22 2 12 2 32 0 45 -2 12 -4 2 -4 -23z"></path>
<path d="M5916 2315 c-3 -8 -1 -15 3 -15 5 0 11 7 15 15 3 8 1 15 -3 15 -5 0
-11 -7 -15 -15z"></path>
<path d="M5947 2280 c3 -11 0 -20 -6 -20 -6 0 -11 5 -11 10 0 6 -4 10 -10 10
-5 0 -10 -7 -10 -16 0 -26 54 -14 58 14 2 14 -2 22 -11 22 -10 0 -13 -7 -10
-20z"></path>
<path d="M500 2153 c0 -5 7 -18 15 -29 13 -18 14 -18 8 4 -5 22 -23 41 -23 25z"></path>
<path d="M531 2150 c0 -8 4 -22 9 -30 12 -18 12 -2 0 25 -6 13 -9 15 -9 5z"></path>
<path d="M347 2102 c-3 -15 -2 -31 3 -35 4 -5 10 6 12 23 6 39 -8 50 -15 12z"></path>
<path d="M690 2090 c0 -5 5 -10 10 -10 6 0 10 5 10 10 0 6 -4 10 -10 10 -5 0
-10 -4 -10 -10z"></path>
<path d="M590 2073 c0 -5 5 -26 11 -48 7 -22 15 -62 19 -90 l8 -50 1 47 c1 57
-17 148 -30 148 -5 0 -9 -3 -9 -7z"></path>
<path d="M720 2051 c0 -25 6 -27 13 -6 4 8 2 17 -3 20 -6 4 -10 -3 -10 -14z"></path>
<path d="M314 2004 c3 -22 24 -80 46 -129 23 -48 47 -111 55 -139 8 -30 14
-41 14 -26 0 14 -16 66 -35 115 -20 50 -47 119 -61 155 -21 58 -24 60 -19 24z"></path>
<path d="M484 2011 c3 -18 7 -88 7 -155 2 -117 2 -119 10 -51 8 67 -3 221 -17
234 -4 3 -4 -9 0 -28z"></path>
<path d="M185 1953 c3 -16 13 -35 21 -43 12 -12 14 -12 14 3 0 9 -4 17 -10 17
-5 0 -10 11 -10 25 0 14 -5 25 -11 25 -7 0 -9 -10 -4 -27z"></path>
<path d="M5110 1848 c0 -24 16 -56 23 -48 3 3 2 20 0 38 -6 36 -23 44 -23 10z"></path>
<path d="M5320 1670 c0 -8 5 -22 10 -30 9 -13 10 -13 10 0 0 8 -5 22 -10 30
-9 13 -10 13 -10 0z"></path>
<path d="M3475 1764 c-10 -11 -13 -20 -7 -26 13 -13 51 12 45 29 -7 17 -18 16
-38 -3z"></path>
<path d="M4017 1784 c-4 -4 -7 -14 -7 -23 0 -11 3 -12 11 -4 6 6 10 16 7 23
-2 6 -7 8 -11 4z"></path>
<path d="M4090 1769 c0 -5 5 -7 10 -4 6 3 10 8 10 11 0 2 -4 4 -10 4 -5 0 -10
-5 -10 -11z"></path>
<path d="M4046 1755 c-3 -8 -1 -15 4 -15 6 0 10 7 10 15 0 8 -2 15 -4 15 -2 0
-6 -7 -10 -15z"></path>
<path d="M4976 1621 c-6 -9 61 -57 69 -49 2 2 -11 16 -30 31 -19 15 -36 23
-39 18z"></path>
<path d="M5025 1550 c3 -5 14 -10 23 -10 15 0 15 2 2 10 -20 13 -33 13 -25 0z"></path>
<path d="M4188 1595 c-10 -10 3 -45 17 -45 7 0 15 7 19 15 3 9 0 15 -8 15 -8
0 -16 5 -18 11 -2 5 -6 7 -10 4z"></path>
<path d="M4097 1524 c-4 -4 -7 -19 -6 -33 l1 -26 7 25 c7 24 7 24 19 5 12 -19
12 -19 10 4 -3 25 -19 37 -31 25z"></path>
<path d="M2234 1516 c22 -18 54 -20 76 -6 11 7 6 10 -22 10 -20 0 -45 3 -55 6
-16 5 -16 4 1 -10z"></path>
<path d="M3501 1516 c-13 -15 -64 -19 -55 -4 6 9 -34 2 -45 -8 -9 -8 15 -23
39 -26 14 -2 28 -7 32 -12 4 -6 12 -5 21 3 12 9 16 9 19 0 3 -8 11 -6 26 7 26
22 28 39 6 48 -23 9 -30 8 -43 -8z m44 -16 c3 -6 -1 -7 -9 -4 -18 7 -21 14 -7
14 6 0 13 -4 16 -10z"></path>
<path d="M3680 1514 c0 -8 5 -12 10 -9 6 4 8 11 5 16 -9 14 -15 11 -15 -7z"></path>
<path d="M4821 1373 c0 -10 4 -27 9 -38 7 -17 9 -15 9 12 1 17 -3 35 -9 38 -5
3 -10 -2 -9 -12z"></path>
<path d="M4853 1299 c0 -26 3 -36 8 -27 11 17 11 55 0 62 -4 3 -8 -13 -8 -35z"></path>
<path d="M5590 1216 c-257 -11 -265 -12 -262 -31 8 -43 134 -400 144 -406 6
-4 7 -12 3 -19 -5 -9 -4 -11 3 -6 7 4 12 18 12 32 0 33 17 30 25 -5 9 -40 49
-51 74 -19 15 18 17 28 9 56 -16 59 8 163 27 114 6 -15 8 -15 26 7 10 13 19
19 19 14 0 -5 -6 -15 -12 -21 -10 -10 -10 -15 1 -22 12 -7 13 -11 1 -24 -26
-32 1 -29 33 3 18 19 25 31 17 27 -8 -4 -2 4 14 18 16 13 31 32 33 40 5 24 9
39 17 58 4 9 5 22 1 28 -8 12 -35 13 -35 1 0 -5 -9 -7 -20 -4 -18 5 -25 -5
-21 -30 1 -4 -4 -7 -11 -6 -29 4 -40 -2 -34 -17 3 -9 2 -12 -5 -9 -5 4 -17 1
-25 -6 -24 -20 -31 0 -38 107 l-6 101 62 7 c33 3 87 6 118 6 l57 0 7 -46 c3
-26 6 -61 6 -78 l0 -31 30 35 c23 27 27 36 15 38 -10 2 -15 16 -15 43 0 40 4
43 49 39 14 -1 21 2 17 9 -4 6 -22 10 -39 9 -18 -1 -151 -6 -297 -12z m-67
-78 c5 -56 5 -58 -19 -58 -13 0 -24 4 -24 8 0 14 31 114 34 110 2 -1 6 -29 9
-60z m224 -104 c-3 -3 -12 -4 -19 -1 -8 3 -5 6 6 6 11 1 17 -2 13 -5z m-17
-38 c0 -2 -7 -9 -15 -16 -12 -10 -15 -10 -15 4 0 9 7 16 15 16 8 0 15 -2 15
-4z m-180 -150 c0 -8 -9 -18 -20 -21 -29 -9 -60 3 -53 21 7 19 73 19 73 0z"></path>
<path d="M5298 1099 c2 -44 1 -88 -3 -97 -6 -16 -7 -16 -18 -1 -7 9 -22 19
-35 23 -12 4 -20 13 -16 19 3 7 -2 3 -10 -7 -15 -19 -13 -22 37 -67 54 -48
109 -137 121 -195 6 -26 2 -37 -23 -65 -22 -24 -27 -35 -18 -41 23 -14 37 -8
37 17 0 13 11 36 24 51 56 62 60 68 45 62 -11 -4 -19 10 -33 57 -13 46 -22 62
-32 58 -28 -10 -43 16 -41 73 l2 55 18 -38 c20 -45 19 -37 -19 84 -16 51 -31
93 -34 93 -3 0 -4 -36 -2 -81z"></path>
<path d="M5219 1093 c-22 -28 -41 -64 -36 -69 3 -3 16 15 30 40 27 49 29 57 6
29z"></path>
<path d="M5870 1071 c0 -6 4 -13 10 -16 6 -3 7 1 4 9 -7 18 -14 21 -14 7z"></path>
<path d="M5257 1053 c-12 -12 -7 -22 8 -17 8 4 15 10 15 15 0 11 -14 12 -23 2z"></path>
<path d="M4886 1030 c-27 -11 -53 -23 -58 -28 -6 -6 26 -20 76 -36 66 -21 97
-38 134 -71 l48 -44 18 30 c9 16 14 34 11 39 -9 14 33 80 51 80 9 0 12 5 9 10
-4 6 -10 8 -15 5 -5 -3 -11 -1 -15 5 -9 15 -25 12 -19 -3 3 -8 -2 -20 -10 -26
-13 -11 -17 -9 -26 13 -5 14 -14 26 -20 26 -6 0 -8 5 -5 10 11 18 -126 11
-179 -10z"></path>
<path d="M5936 1001 c-14 -15 -15 -24 -6 -40 6 -12 15 -21 21 -21 14 0 33 46
26 64 -8 21 -20 20 -41 -3z"></path>
<path d="M6070 971 c0 -5 7 -16 15 -25 9 -8 15 -18 15 -21 -5 -22 9 -25 28 -5
22 24 30 46 13 36 -5 -4 -11 -2 -13 2 -5 13 -58 24 -58 13z"></path>
<path d="M5143 957 c-4 -6 -1 -7 7 -2 10 6 12 4 7 -8 -9 -23 0 -22 12 1 8 14
6 19 -5 19 -8 0 -18 -5 -21 -10z"></path>
<path d="M5930 886 c0 -30 -3 -37 -15 -32 -8 3 -21 8 -27 11 -26 10 -39 -13
-45 -77 -4 -44 -2 -67 6 -72 7 -5 11 2 11 19 0 22 3 26 18 20 9 -4 22 -9 27
-11 23 -9 36 16 42 78 3 40 1 72 -5 84 -10 16 -11 13 -12 -20z m-40 -71 c-7
-9 -15 -13 -17 -11 -7 7 7 26 19 26 6 0 6 -6 -2 -15z m26 -52 c-3 -3 -13 0
-22 8 -14 12 -14 14 3 27 16 11 18 11 21 -8 2 -12 1 -24 -2 -27z"></path>
<path d="M4944 855 c-9 -22 1 -29 15 -11 8 10 9 16 1 21 -5 3 -13 -1 -16 -10z"></path>
<path d="M4970 835 c-10 -13 -9 -15 9 -15 12 0 21 6 21 15 0 8 -4 15 -9 15 -5
0 -14 -7 -21 -15z"></path>
<path d="M6206 764 c-8 -20 0 -32 14 -18 5 5 5 15 1 22 -6 11 -10 10 -15 -4z"></path>
<path d="M5399 713 l-24 -28 28 24 c15 14 27 26 27 28 0 8 -8 1 -31 -24z"></path>
<path d="M5528 723 c7 -3 16 -2 19 1 4 3 -2 6 -13 5 -11 0 -14 -3 -6 -6z"></path>
<path d="M5581 683 c7 -12 15 -20 18 -17 3 2 -3 12 -13 22 -17 16 -18 16 -5
-5z"></path>
<path d="M5440 651 c0 -14 5 -19 15 -14 17 6 15 25 -3 31 -7 2 -12 -5 -12 -17z"></path>
<path d="M5537 656 c-4 -10 2 -20 14 -27 18 -9 20 -8 17 12 -4 27 -23 36 -31
15z"></path>
<path d="M5602 630 c0 -14 2 -19 5 -12 2 6 2 18 0 25 -3 6 -5 1 -5 -13z"></path>
<path d="M5500 624 c0 -8 5 -12 10 -9 6 3 10 10 10 16 0 5 -4 9 -10 9 -5 0
-10 -7 -10 -16z"></path>
<path d="M5455 601 c-3 -6 4 -15 15 -21 17 -9 20 -8 20 10 0 20 -24 28 -35 11z"></path>
<path d="M5520 590 c0 -23 13 -26 29 -6 9 11 8 15 -5 20 -23 9 -24 8 -24 -14z"></path>
<path d="M5430 586 c0 -2 8 -10 18 -17 15 -13 16 -12 3 4 -13 16 -21 21 -21
13z"></path>
<path d="M5576 562 l-19 -27 24 22 c12 12 21 24 18 27 -2 2 -13 -8 -23 -22z"></path>
<path d="M5468 533 c7 -3 16 -2 19 1 4 3 -2 6 -13 5 -11 0 -14 -3 -6 -6z"></path>
<path d="M5528 533 c7 -3 16 -2 19 1 4 3 -2 6 -13 5 -11 0 -14 -3 -6 -6z"></path>
<path d="M3563 1107 c4 -10 7 -23 7 -28 0 -5 5 -9 10 -9 15 0 12 20 -7 38 -16
16 -16 16 -10 -1z"></path>
<path d="M3783 1113 c15 -2 39 -2 55 0 15 2 2 4 -28 4 -30 0 -43 -2 -27 -4z"></path>
<path d="M3690 1090 c0 -3 -27 -16 -60 -28 -135 -53 -230 -203 -230 -362 0
-69 17 -43 23 35 3 48 14 94 30 128 28 62 123 172 133 155 4 -7 10 -5 16 6 11
19 67 45 123 55 l40 7 -37 5 c-21 3 -38 2 -38 -1z"></path>
<path d="M3865 1090 c-3 -5 -1 -10 4 -10 6 0 11 5 11 10 0 6 -2 10 -4 10 -3 0
-8 -4 -11 -10z"></path>
<path d="M3811 1016 c-48 -69 -52 -87 -40 -174 14 -93 27 -108 75 -84 28 13
34 21 33 46 0 28 -1 29 -12 12 -7 -10 -20 -28 -30 -40 l-18 -21 12 25 c7 14
21 36 31 50 15 19 19 38 17 85 -4 104 -1 125 19 126 11 1 9 4 -8 9 -43 14 -48
11 -79 -34z"></path>
<path d="M3930 1030 c8 -5 20 -10 25 -10 6 0 3 5 -5 10 -8 5 -19 10 -25 10 -5
0 -3 -5 5 -10z"></path>
<path d="M4028 969 c20 -22 33 -48 35 -67 2 -34 5 -36 26 -23 18 12 4 36 -51
86 -39 37 -40 37 -10 4z"></path>
<path d="M4170 929 c0 -5 5 -7 10 -4 6 3 10 8 10 11 0 2 -4 4 -10 4 -5 0 -10
-5 -10 -11z"></path>
<path d="M4200 865 c0 -5 5 -17 10 -25 5 -8 10 -10 10 -5 0 6 -5 17 -10 25 -5
8 -10 11 -10 5z"></path>
<path d="M4210 771 c0 -5 5 -13 10 -16 6 -3 10 -2 10 4 0 5 -4 13 -10 16 -5 3
-10 2 -10 -4z"></path>
<path d="M3653 703 c9 -2 23 -2 30 0 6 3 -1 5 -18 5 -16 0 -22 -2 -12 -5z"></path>
<path d="M3728 703 c6 -2 18 -2 25 0 6 3 1 5 -13 5 -14 0 -19 -2 -12 -5z"></path>
<path d="M3875 528 c8 -38 16 -48 22 -30 3 6 9 9 15 6 6 -4 0 7 -13 25 -29 39
-32 39 -24 -1z"></path>
<path d="M3862 465 c0 -16 2 -22 5 -12 2 9 2 23 0 30 -3 6 -5 -1 -5 -18z"></path>
<path d="M3891 454 c0 -11 3 -14 6 -6 3 7 2 16 -1 19 -3 4 -6 -2 -5 -13z"></path>
<path d="M3957 443 c-4 -3 -7 -11 -7 -17 0 -6 5 -5 12 2 6 6 9 14 7 17 -3 3
-9 2 -12 -2z"></path>
<path d="M4657 1003 c-11 -10 -8 -63 3 -63 6 0 10 6 10 13 0 6 3 22 6 35 6 21
-5 30 -19 15z"></path>
<path d="M4825 610 c3 -5 11 -10 16 -10 6 0 7 5 4 10 -3 6 -11 10 -16 10 -6 0
-7 -4 -4 -10z"></path>
<path d="M5054 615 c-7 -17 -34 -21 -34 -5 0 15 -12 12 -40 -11 -24 -19 -24
-20 -2 -9 13 6 31 9 39 6 18 -7 9 -21 -14 -21 -9 0 -19 -7 -21 -15 -5 -13 -3
-13 11 -1 10 7 17 9 17 4 0 -5 9 -9 19 -9 11 0 19 3 18 6 -1 3 8 15 21 28 12
12 22 27 22 32 0 16 -30 12 -36 -5z"></path>
<path d="M4861 4274 c0 -11 3 -14 6 -6 3 7 2 16 -1 19 -3 4 -6 -2 -5 -13z"></path>
<path d="M3565 4270 c-3 -5 -1 -10 4 -10 6 0 11 5 11 10 0 6 -2 10 -4 10 -3 0
-8 -4 -11 -10z"></path>
<path d="M3697 4263 c-12 -11 -8 -23 8 -23 8 0 15 7 15 15 0 16 -12 20 -23 8z"></path>
<path d="M3853 2590 c0 -30 2 -43 4 -27 2 15 2 39 0 55 -2 15 -4 2 -4 -28z"></path>
<path d="M2538 2480 c-2 -7 -2 -26 0 -42 4 -23 7 -26 18 -17 18 14 18 30 0 54
-10 14 -14 15 -18 5z"></path>
<path d="M1946 2437 c-27 -24 -43 -81 -27 -91 22 -14 91 59 91 95 0 23 -38 20
-64 -4z"></path>
<path d="M2580 2429 c0 -5 5 -7 10 -4 6 3 10 8 10 11 0 2 -4 4 -10 4 -5 0 -10
-5 -10 -11z"></path>
<path d="M35 2378 c-4 -10 -4 -26 0 -35 8 -17 8 -17 12 0 3 9 3 25 0 35 -4 16
-4 16 -12 0z"></path>
<path d="M160 1671 c0 -6 5 -13 10 -16 6 -3 10 1 10 9 0 9 -4 16 -10 16 -5 0
-10 -4 -10 -9z"></path>
<path d="M200 1651 c0 -6 4 -13 10 -16 6 -3 7 1 4 9 -7 18 -14 21 -14 7z"></path>
<path d="M2550 1602 c0 -12 59 -57 87 -66 38 -12 35 12 -4 38 -44 28 -83 41
-83 28z"></path>
<path d="M2913 1453 c9 -2 25 -2 35 0 9 3 1 5 -18 5 -19 0 -27 -2 -17 -5z"></path>
<path d="M2950 1430 c-11 -7 -5 -8 20 -4 43 8 51 14 19 14 -13 0 -31 -5 -39
-10z"></path>
<path d="M2995 1410 c3 -5 8 -10 11 -10 2 0 4 5 4 10 0 6 -5 10 -11 10 -5 0
-7 -4 -4 -10z"></path>
<path d="M2858 1308 c-12 -37 -26 -68 -31 -68 -4 0 -6 -4 -3 -8 3 -5 22 -8 43
-6 21 2 54 3 73 4 35 1 35 1 13 17 -13 8 -23 21 -23 28 0 8 -12 28 -26 45 -15
17 -25 32 -23 34 2 2 13 8 24 14 19 10 19 11 -3 9 -18 -1 -26 -13 -44 -69z"></path>
<path d="M2177 1158 c-9 -31 -2 -33 11 -3 6 14 8 25 3 25 -5 0 -11 -10 -14
-22z"></path>
<path d="M2230 1159 c0 -5 5 -7 10 -4 6 3 10 8 10 11 0 2 -4 4 -10 4 -5 0 -10
-5 -10 -11z"></path>
<path d="M2789 1125 c-1 -3 -2 -8 -3 -12 -1 -5 -9 -24 -19 -43 -9 -19 -39 -91
-67 -160 -28 -68 -57 -131 -65 -139 -9 -9 -5 9 10 45 26 62 31 99 16 108 -5 3
-11 15 -14 27 -4 16 -3 19 6 10 15 -15 23 -14 41 5 22 21 20 41 -4 47 -20 5
-45 -15 -33 -27 4 -4 -6 -6 -23 -4 -30 2 -74 -16 -74 -31 0 -5 -16 -7 -35 -4
-24 2 -35 -1 -35 -10 0 -19 -59 -13 -74 8 -11 16 -15 14 -40 -15 -41 -49 -70
-109 -54 -114 14 -5 143 -18 198 -20 19 -1 44 -7 56 -14 14 -7 24 -8 31 -1 17
17 8 -29 -10 -49 -29 -31 -19 -33 15 -2 35 33 59 30 31 -3 -15 -18 -13 -18 9
2 23 20 30 22 43 11 9 -7 15 -8 15 -2 0 6 -6 13 -12 15 -8 3 -5 6 6 6 14 1 16
4 8 14 -8 9 -1 39 23 109 21 59 31 105 28 119 -7 26 -7 26 57 -25 14 -12 6 -1
-18 23 -32 32 -40 47 -32 55 7 7 17 7 33 -3 12 -8 19 -10 15 -6 -4 5 -3 14 3
21 7 9 6 20 -6 38 -17 26 -24 31 -26 21z m-73 -261 c-8 -21 -15 -34 -15 -28
-1 15 20 76 25 71 2 -2 -2 -21 -10 -43z m-40 -102 c-17 -16 -18 -16 -5 5 7 12
15 20 18 17 3 -2 -3 -12 -13 -22z"></path>
<path d="M18 1113 c6 -2 18 -2 25 0 6 3 1 5 -13 5 -14 0 -19 -2 -12 -5z"></path>
<path d="M225 1110 c-8 -13 5 -13 25 0 13 8 13 10 -2 10 -9 0 -20 -4 -23 -10z"></path>
<path d="M2861 1051 c31 -44 235 -259 246 -260 6 -1 15 4 19 11 5 7 2 9 -8 6
-10 -4 -55 37 -138 128 -117 127 -150 159 -119 115z"></path>
<path d="M3250 1001 c0 -17 15 -19 28 -5 11 12 9 14 -8 14 -11 0 -20 -4 -20
-9z"></path>
<path d="M2430 950 c0 -5 5 -10 10 -10 6 0 10 5 10 10 0 6 -4 10 -10 10 -5 0
-10 -4 -10 -10z"></path>
<path d="M2881 890 c14 -31 19 -36 19 -24 0 6 -7 19 -16 30 -14 18 -14 18 -3
-6z"></path>
<path d="M171 874 c0 -11 3 -14 6 -6 3 7 2 16 -1 19 -3 4 -6 -2 -5 -13z"></path>
<path d="M2911 814 c0 -11 3 -14 6 -6 3 7 2 16 -1 19 -3 4 -6 -2 -5 -13z"></path>
<path d="M2922 770 c0 -14 2 -19 5 -12 2 6 2 18 0 25 -3 6 -5 1 -5 -13z"></path>
<path d="M2950 656 c0 -20 -11 -69 -25 -108 -28 -80 -29 -88 -15 -88 22 0 52
94 51 159 0 35 -3 66 -6 69 -3 3 -5 -11 -5 -32z"></path>
<path d="M460 500 c0 -5 5 -10 11 -10 5 0 7 5 4 10 -3 6 -8 10 -11 10 -2 0 -4
-4 -4 -10z"></path>
<path d="M2280 501 c0 -6 4 -13 10 -16 6 -3 7 1 4 9 -7 18 -14 21 -14 7z"></path>
<path d="M2592 358 c-11 -4 -5 -7 18 -7 19 0 41 3 48 8 16 10 -39 9 -66 -1z"></path>
<path d="M2538 353 c6 -2 18 -2 25 0 6 3 1 5 -13 5 -14 0 -19 -2 -12 -5z"></path>
</g>
</svg>